<?xml version="1.0" encoding="iso-8859-1"?>
<!-- Generator: Adobe Illustrator 19.0.0, SVG Export Plug-In . SVG Version: 6.00 Build 0)  -->
<svg version="1.1" id="Capa_1" xmlns="http://www.w3.org/2000/svg" xmlns:xlink="http://www.w3.org/1999/xlink" x="0px" y="0px"
	 viewBox="0 0 512 512" style="enable-background:new 0 0 512 512;" xml:space="preserve">
<g>
	<g>
		<g>
			<path d="M469.333,8.533c-9.146,0.029-18.036,3.023-25.336,8.533H408.03C404.427,6.875,394.81,0.045,384,0H128
				c-10.81,0.045-20.427,6.875-24.03,17.067H68.002c-7.3-5.51-16.19-8.504-25.335-8.533C19.103,8.533,0,27.636,0,51.2
				s19.103,42.667,42.667,42.667c9.146-0.029,18.036-3.023,25.335-8.533H102.4v8.533c0,3.236,1.831,6.194,4.727,7.637
				c8.059,4.099,15.765,8.857,23.04,14.225c-7.462,0.371-14.837,1.775-21.914,4.173c-3.493,1.155-5.852,4.419-5.854,8.098v162.133
				c0,2.263,0.9,4.433,2.5,6.033l14.566,14.566V332.8h-0.111c-4.465-0.005-8.748,1.766-11.904,4.924
				c-3.247,3.204-5.068,7.581-5.052,12.143v76.8H76.8c-2.263,0-4.433,0.9-6.033,2.5c-1.843,1.843-11.034,12.433-11.034,40.166
				s9.19,38.323,11.034,40.166c1.6,1.6,3.77,2.5,6.033,2.5h358.4c2.263,0,4.433-0.9,6.033-2.5
				c1.843-1.843,11.034-12.433,11.034-40.166s-9.19-38.323-11.034-40.166c-1.6-1.6-3.77-2.5-6.033-2.5h-25.6v-59.733
				c0-0.119-0.06-0.213-0.068-0.333c-0.178-1.095-0.434-2.176-0.768-3.234c-0.245-0.457-0.53-0.891-0.853-1.297
				c-0.501-0.94-1.291-1.694-2.253-2.15c-0.492-0.365-1.024-0.671-1.587-0.913c-0.102,0-0.179-0.128-0.29-0.171
				c-7.079-2.398-14.457-3.802-21.922-4.173c7.276-5.367,14.982-10.125,23.04-14.225c0.809-0.63,1.617-1.261,2.423-1.894
				c0.324-0.399,0.609-0.828,0.853-1.28c0.721-0.912,1.134-2.03,1.178-3.191c0.117-0.416,0.2-0.842,0.247-1.271V179.2
				c0-9.426-7.641-17.067-17.067-17.067v-28.86l12.348-6.17c0.342-0.232,0.668-0.489,0.973-0.768
				c0.517-0.319,0.998-0.694,1.434-1.118c0.35-0.417,0.656-0.869,0.913-1.348c0.716-0.924,1.122-2.049,1.161-3.217
				c0.11-0.389,0.19-0.785,0.239-1.186V85.333h34.398c7.3,5.51,16.19,8.504,25.336,8.533C492.898,93.867,512,74.764,512,51.2
				S492.898,8.533,469.333,8.533z M42.667,76.8c-14.138,0-25.6-11.461-25.6-25.6s11.462-25.6,25.6-25.6s25.6,11.462,25.6,25.6
				S56.805,76.8,42.667,76.8z M102.4,68.267H81.715c4.824-10.866,4.824-23.267,0-34.133H102.4V68.267z M430.592,443.733
				c3.451,8.076,5.026,16.828,4.608,25.6c0.411,8.768-1.152,17.517-4.574,25.6H81.408c-3.451-8.075-5.026-16.828-4.608-25.6
				c-0.411-8.768,1.153-17.517,4.574-25.6H430.592z M392.533,114.193l-12.348,6.17c-2.893,1.446-4.72,4.403-4.719,7.637v34.133
				c0,9.426,7.641,17.067,17.067,17.067v148.48c-10.411,5.692-33.903,19.823-41.685,35.379c0,0.077,0,0.162-0.077,0.239
				c-0.18,0.449-0.325,0.911-0.435,1.382c-0.131,0.449-0.226,0.909-0.282,1.374c-0.078,0.289-0.141,0.583-0.188,0.879
				c0.045,0.316,0.108,0.629,0.188,0.939c0,0.213,0.085,0.427,0.128,0.64c0.613,3.273,3.123,5.863,6.374,6.579
				c0.196,0.051,0.384,0.085,0.58,0.119c0.413,0.12,0.836,0.205,1.263,0.256c0.264-0.041,0.526-0.095,0.785-0.162
				c0.387-0.047,0.769-0.124,1.143-0.23c0.562-0.093,1.114-0.242,1.647-0.444c9.813-3.569,20.495-3.989,30.558-1.203v53.239H119.467
				l-0.094-76.8h0.094c9.426,0,17.067-7.641,17.067-17.067v-25.6c0-2.263-0.9-4.433-2.5-6.033l-14.566-14.566V134.426
				c10.077-2.82,20.79-2.366,30.592,1.297c0.472,0.169,0.957,0.297,1.451,0.384c0.455,0.131,0.92,0.226,1.391,0.282
				c0.231,0.061,0.464,0.109,0.7,0.145c0.383-0.051,0.762-0.128,1.135-0.23c0.302-0.043,0.601-0.103,0.896-0.179
				c0.684-0.158,1.346-0.399,1.971-0.717c2.135-1.188,3.646-3.247,4.139-5.641c0.06-0.29,0.137-0.563,0.171-0.853
				c0.094-0.299,0.168-0.604,0.222-0.913c-0.044-0.288-0.104-0.572-0.179-0.853c-0.059-0.474-0.156-0.942-0.29-1.399
				c-0.107-0.473-0.255-0.936-0.444-1.382c0-0.077,0-0.154-0.068-0.23c-7.774-15.59-31.266-29.73-41.685-35.388V25.6
				c0-4.713,3.82-8.533,8.533-8.533h256c4.713,0,8.533,3.82,8.533,8.533V114.193z M430.285,68.267H409.6V34.133h20.685
				C425.461,45,425.461,57.4,430.285,68.267z M487.435,69.302c-4.801,4.801-11.312,7.498-18.102,7.498
				c-14.138,0-25.6-11.461-25.6-25.6s11.462-25.6,25.6-25.6s25.6,11.462,25.6,25.6C494.933,57.99,492.236,64.501,487.435,69.302z"/>
			<path d="M332.8,93.875v-0.008h-11.452l-12.732-14.225c-3.07-3.435-8.313-3.813-11.844-0.853l-20.591,17.263l-3.925-13.158
				c-0.703-2.353-2.385-4.29-4.617-5.314c-2.232-1.025-4.797-1.038-7.04-0.036l-34.27,15.36l-11.52-6.443
				c-2.185-1.221-4.797-1.421-7.142-0.546l-22.912,8.533c-2.857,1.067-4.927,3.577-5.431,6.584
				c-0.504,3.007,0.634,6.055,2.987,7.996c2.352,1.94,5.561,2.478,8.418,1.411l19.192-7.185l11.81,6.605
				c2.361,1.326,5.211,1.452,7.68,0.341l29.286-13.099l4.864,16.282c0.821,2.751,2.971,4.906,5.72,5.732s5.731,0.215,7.933-1.628
				l24.209-20.301l9.771,10.914c1.619,1.808,3.931,2.841,6.357,2.842H332.8c4.713,0,8.533-3.821,8.533-8.533
				C341.333,97.696,337.513,93.875,332.8,93.875z"/>
			<path d="M332.8,179.209V179.2h-11.452l-12.732-14.225c-3.07-3.435-8.313-3.813-11.844-0.853l-20.591,17.263l-3.925-13.158
				c-0.703-2.353-2.385-4.29-4.617-5.314c-2.232-1.024-4.797-1.038-7.04-0.036l-34.27,15.36l-11.52-6.443
				c-2.188-1.213-4.796-1.412-7.142-0.546l-22.912,8.533c-2.857,1.067-4.927,3.577-5.431,6.584
				c-0.504,3.007,0.634,6.055,2.987,7.996c2.352,1.94,5.561,2.478,8.418,1.411l19.192-7.185l11.81,6.605
				c2.364,1.315,5.209,1.442,7.68,0.341l29.286-13.099l4.864,16.282c0.821,2.751,2.971,4.906,5.72,5.732
				c2.75,0.827,5.731,0.215,7.933-1.628l24.209-20.301l9.771,10.914c1.619,1.808,3.931,2.841,6.357,2.842H332.8
				c4.713,0,8.533-3.82,8.533-8.533S337.513,179.209,332.8,179.209z"/>
			<path d="M332.8,264.542v-0.009h-11.452l-12.732-14.225c-3.07-3.435-8.313-3.813-11.844-0.853l-20.591,17.263l-3.925-13.158
				c-0.703-2.353-2.385-4.29-4.617-5.314c-2.232-1.025-4.797-1.038-7.04-0.036l-34.27,15.36l-11.52-6.443
				c-2.185-1.221-4.797-1.421-7.142-0.546l-22.912,8.533c-4.416,1.649-6.659,6.566-5.009,10.982s6.566,6.659,10.982,5.009
				l19.192-7.185l11.81,6.605c2.361,1.326,5.211,1.452,7.68,0.341l29.286-13.099l4.864,16.282c0.821,2.751,2.971,4.906,5.72,5.732
				c2.75,0.827,5.731,0.215,7.933-1.628l24.209-20.301l9.771,10.914c1.619,1.808,3.931,2.841,6.357,2.842H332.8
				c4.713,0,8.533-3.82,8.533-8.533S337.513,264.542,332.8,264.542z"/>
			<path d="M308.617,335.642c-3.07-3.435-8.313-3.813-11.844-0.853l-20.591,17.263l-3.925-13.158
				c-0.703-2.353-2.385-4.29-4.617-5.314c-2.232-1.024-4.797-1.038-7.04-0.036l-34.27,15.317l-11.52-6.443
				c-2.185-1.221-4.797-1.421-7.142-0.546l-22.912,8.533c-4.416,1.649-6.659,6.566-5.009,10.982
				c1.649,4.416,6.566,6.659,10.982,5.009l19.192-7.142l11.81,6.605c2.361,1.326,5.211,1.452,7.68,0.341l29.286-13.099l4.864,16.282
				c0.821,2.751,2.971,4.906,5.72,5.732s5.731,0.215,7.933-1.628l24.209-20.301l9.771,10.914c2.025,2.304,5.131,3.344,8.135,2.724
				c3.004-0.62,5.444-2.805,6.392-5.722c0.947-2.918,0.255-6.119-1.812-8.385L308.617,335.642z"/>
		</g>
	</g>
</g>
<g>
</g>
<g>
</g>
<g>
</g>
<g>
</g>
<g>
</g>
<g>
</g>
<g>
</g>
<g>
</g>
<g>
</g>
<g>
</g>
<g>
</g>
<g>
</g>
<g>
</g>
<g>
</g>
<g>
</g>
</svg>
