<?xml version="1.0" encoding="iso-8859-1"?>
<!-- Generator: Adobe Illustrator 19.0.0, SVG Export Plug-In . SVG Version: 6.00 Build 0)  -->
<svg version="1.1" id="Capa_1" xmlns="http://www.w3.org/2000/svg" xmlns:xlink="http://www.w3.org/1999/xlink" x="0px" y="0px"
	 viewBox="0 0 512 512" style="enable-background:new 0 0 512 512;" xml:space="preserve">
<g>
	<g>
		<g>
			<path d="M256,0C114.615,0,0,114.615,0,256s114.615,256,256,256s256-114.615,256-256C511.84,114.681,397.319,0.16,256,0z
				 M256,494.933C124.041,494.933,17.067,387.959,17.067,256S124.041,17.067,256,17.067S494.933,124.041,494.933,256
				C494.783,387.897,387.897,494.783,256,494.933z"/>
			<path d="M256,68.267C152.318,68.267,68.267,152.318,68.267,256S152.318,443.733,256,443.733S443.733,359.682,443.733,256
				C443.616,152.366,359.634,68.384,256,68.267z M392.533,247.467v-93.431c45.521,60.362,45.521,143.585,0,203.947v-0.017V281.6
				c0-4.713-3.82-8.533-8.533-8.533s-8.533,3.821-8.533,8.533v96.077c-7.851,7.707-16.424,14.642-25.6,20.71V230.4
				c0-4.713-3.82-8.533-8.533-8.533s-8.533,3.82-8.533,8.533v177.801c-8.23,4.225-16.792,7.769-25.6,10.598V332.8
				c0-4.713-3.82-8.533-8.533-8.533s-8.533,3.821-8.533,8.533v90.453c-8.445,1.645-17.003,2.65-25.6,3.004v-76.39
				c0-4.713-3.82-8.533-8.533-8.533s-8.533,3.82-8.533,8.533v76.365c-8.597-0.354-17.155-1.358-25.6-3.004V332.8
				c0-4.713-3.821-8.533-8.533-8.533c-4.713,0-8.533,3.821-8.533,8.533v85.999c-8.808-2.829-17.37-6.374-25.6-10.598v-92.467
				c0-4.713-3.82-8.533-8.533-8.533s-8.533,3.82-8.533,8.533v82.654c-9.176-6.068-17.749-13.004-25.6-20.71V264.533
				c0-4.713-3.82-8.533-8.533-8.533s-8.533,3.82-8.533,8.533v93.432c-45.521-60.362-45.521-143.585,0-203.947V230.4
				c0,4.713,3.82,8.533,8.533,8.533s8.533-3.82,8.533-8.533v-96.077c7.851-7.707,16.424-14.642,25.6-20.71V281.6
				c0,4.713,3.82,8.533,8.533,8.533s8.533-3.82,8.533-8.533V103.799c8.23-4.224,16.792-7.769,25.6-10.598V179.2
				c0,4.713,3.821,8.533,8.533,8.533c4.713,0,8.533-3.82,8.533-8.533V88.747c8.445-1.645,17.003-2.65,25.6-3.004v76.39
				c0,4.713,3.82,8.533,8.533,8.533s8.533-3.82,8.533-8.533V85.769c8.597,0.354,17.155,1.358,25.6,3.004V179.2
				c0,4.713,3.82,8.533,8.533,8.533s8.533-3.82,8.533-8.533V93.201c8.808,2.829,17.37,6.374,25.6,10.598v92.467
				c0,4.713,3.821,8.533,8.533,8.533s8.533-3.82,8.533-8.533v-82.654c9.176,6.068,17.749,13.004,25.6,20.71v113.143
				c0,4.713,3.82,8.533,8.533,8.533S392.533,252.18,392.533,247.467z"/>
			<path d="M256,196.267c-32.99,0-59.733,26.744-59.733,59.733S223.01,315.733,256,315.733S315.733,288.99,315.733,256
				C315.696,223.026,288.974,196.304,256,196.267z M256,298.667c-23.564,0-42.667-19.103-42.667-42.667s19.102-42.667,42.667-42.667
				s42.667,19.102,42.667,42.667C298.638,279.552,279.552,298.638,256,298.667z"/>
			<path d="M256,230.4c-4.713,0-8.533,3.82-8.533,8.533s3.82,8.533,8.533,8.533s8.533,3.82,8.533,8.533s3.821,8.533,8.533,8.533
				c4.713,0,8.533-3.82,8.533-8.533C281.6,241.862,270.138,230.4,256,230.4z"/>
			<path d="M248.149,45.909c0.187,0.544,0.445,1.06,0.768,1.536c0.315,0.447,0.657,0.875,1.024,1.28
				c1.625,1.575,3.796,2.461,6.059,2.475c2.259-0.033,4.422-0.917,6.059-2.475c0.367-0.405,0.709-0.833,1.024-1.28
				c0.32-0.478,0.578-0.994,0.768-1.536c0.248-0.482,0.418-1.001,0.503-1.536c0.102-0.564,0.162-1.134,0.179-1.707
				c-0.018-0.573-0.077-1.143-0.179-1.707c-0.085-0.535-0.255-1.054-0.503-1.536c-0.19-0.542-0.448-1.058-0.768-1.536
				c-0.315-0.447-0.657-0.875-1.024-1.28c-3.422-3.157-8.695-3.157-12.117,0c-0.367,0.405-0.709,0.833-1.024,1.28
				c-0.323,0.476-0.581,0.992-0.768,1.536c-0.247,0.484-0.419,1.001-0.512,1.536c-0.095,0.564-0.152,1.135-0.171,1.707
				c0.019,0.572,0.076,1.142,0.171,1.707C247.73,44.908,247.903,45.426,248.149,45.909z"/>
			<path d="M97.28,108.373c0.169,0.517,0.413,1.006,0.725,1.451c0.332,0.464,0.694,0.906,1.084,1.323
				c0.418,0.391,0.86,0.756,1.323,1.092c0.446,0.308,0.935,0.549,1.451,0.717c0.516,0.255,1.064,0.439,1.63,0.546
				c0.539,0.092,1.084,0.152,1.63,0.179c2.266-0.043,4.428-0.96,6.033-2.56c1.586-1.615,2.501-3.771,2.56-6.033
				c-0.027-0.546-0.087-1.091-0.179-1.63c-0.111-0.565-0.294-1.112-0.546-1.63c-0.165-0.516-0.41-1.002-0.725-1.442
				c-0.329-0.469-0.691-0.914-1.084-1.331c-0.418-0.392-0.862-0.754-1.331-1.084c-0.454-0.305-0.952-0.538-1.476-0.691
				c-0.518-0.249-1.066-0.433-1.63-0.546c-0.539-0.092-1.083-0.152-1.63-0.179c-4.626,0.203-8.33,3.907-8.533,8.533
				c0.027,0.546,0.087,1.091,0.179,1.63C96.861,107.29,97.036,107.846,97.28,108.373z"/>
			<path d="M47.445,248.917c-0.478-0.32-0.994-0.578-1.536-0.768c-0.482-0.248-1.001-0.418-1.536-0.503
				c-0.564-0.102-1.134-0.162-1.707-0.179c-0.573,0.018-1.143,0.078-1.707,0.179c-0.535,0.085-1.054,0.255-1.536,0.503
				c-0.542,0.19-1.058,0.448-1.536,0.768c-0.447,0.315-0.875,0.657-1.28,1.024c-3.157,3.422-3.157,8.695,0,12.117
				c0.405,0.367,0.833,0.709,1.28,1.024c0.476,0.323,0.992,0.581,1.536,0.768c0.484,0.246,1.001,0.419,1.536,0.512
				c0.564,0.095,1.135,0.152,1.707,0.171c0.572-0.019,1.142-0.076,1.707-0.171c0.535-0.093,1.052-0.266,1.536-0.512
				c0.544-0.187,1.06-0.445,1.536-0.768c0.447-0.315,0.875-0.657,1.28-1.024c1.575-1.625,2.461-3.796,2.475-6.059
				c-0.033-2.259-0.917-4.422-2.475-6.059C48.32,249.574,47.892,249.232,47.445,248.917z"/>
			<path d="M105.148,398.285c-0.546,0.027-1.091,0.087-1.63,0.179c-0.565,0.111-1.112,0.294-1.63,0.546
				c-0.516,0.165-1.002,0.41-1.442,0.725c-0.469,0.329-0.914,0.691-1.331,1.084c-0.392,0.418-0.754,0.862-1.084,1.331
				c-0.314,0.441-0.558,0.927-0.725,1.442c-0.249,0.518-0.433,1.066-0.546,1.63c-0.092,0.539-0.152,1.083-0.179,1.63
				c0.203,4.626,3.907,8.33,8.533,8.533c0.546-0.027,1.091-0.087,1.63-0.179c0.562-0.093,1.109-0.256,1.63-0.486
				c0.515-0.169,1.003-0.411,1.451-0.717c0.463-0.337,0.904-0.702,1.323-1.092c0.391-0.418,0.756-0.86,1.092-1.323
				c0.308-0.446,0.549-0.935,0.717-1.451c0.255-0.516,0.439-1.064,0.546-1.63c0.092-0.539,0.152-1.083,0.179-1.63
				c-0.043-2.266-0.96-4.428-2.56-6.033C109.521,399.273,107.389,398.359,105.148,398.285z"/>
			<path d="M263.851,466.091c-0.187-0.544-0.445-1.06-0.768-1.536c-0.315-0.447-0.657-0.875-1.024-1.28
				c-1.625-1.575-3.796-2.461-6.059-2.475c-2.259,0.033-4.422,0.917-6.059,2.475c-0.367,0.405-0.709,0.833-1.024,1.28
				c-0.32,0.478-0.578,0.994-0.768,1.536c-0.248,0.482-0.418,1.001-0.503,1.536c-0.239,1.125-0.239,2.288,0,3.413
				c0.085,0.535,0.255,1.054,0.503,1.536c0.19,0.542,0.448,1.058,0.768,1.536c0.315,0.447,0.657,0.875,1.024,1.28
				c3.422,3.157,8.695,3.157,12.117,0c0.367-0.405,0.709-0.833,1.024-1.28c0.323-0.476,0.581-0.992,0.768-1.536
				c0.246-0.484,0.419-1.001,0.512-1.536c0.228-1.126,0.228-2.287,0-3.413C264.27,467.092,264.097,466.574,263.851,466.091z"/>
			<path d="M414.72,403.627c-0.169-0.517-0.413-1.006-0.725-1.451c-0.332-0.464-0.694-0.906-1.084-1.323
				c-0.418-0.391-0.86-0.756-1.323-1.092c-0.446-0.308-0.935-0.549-1.451-0.717c-0.516-0.255-1.064-0.439-1.63-0.546
				c-0.539-0.092-1.083-0.152-1.63-0.179c-2.266,0.043-4.428,0.96-6.033,2.56c-1.586,1.615-2.501,3.771-2.56,6.033
				c0.027,0.546,0.087,1.091,0.179,1.63c0.111,0.565,0.294,1.112,0.546,1.63c0.165,0.516,0.41,1.002,0.725,1.442
				c0.329,0.469,0.691,0.914,1.084,1.331c0.418,0.392,0.862,0.754,1.331,1.084c0.441,0.314,0.927,0.558,1.442,0.725
				c0.518,0.249,1.066,0.433,1.63,0.546c0.539,0.092,1.083,0.152,1.63,0.179c4.626-0.203,8.33-3.907,8.533-8.533
				c-0.027-0.546-0.087-1.091-0.179-1.63C415.118,404.734,414.955,404.166,414.72,403.627z"/>
			<path d="M475.392,249.941c-0.405-0.367-0.833-0.709-1.28-1.024c-0.476-0.323-0.992-0.581-1.536-0.768
				c-0.484-0.247-1.001-0.419-1.536-0.512c-1.126-0.228-2.287-0.228-3.413,0c-0.535,0.093-1.052,0.266-1.536,0.512
				c-0.544,0.187-1.06,0.445-1.536,0.768c-0.447,0.315-0.875,0.657-1.28,1.024c-1.575,1.625-2.461,3.796-2.475,6.059
				c0.033,2.259,0.917,4.422,2.475,6.059c0.405,0.367,0.833,0.709,1.28,1.024c0.478,0.32,0.994,0.578,1.536,0.768
				c0.482,0.248,1.001,0.418,1.536,0.503c1.125,0.239,2.288,0.239,3.413,0c0.535-0.085,1.054-0.255,1.536-0.503
				c0.542-0.19,1.058-0.448,1.536-0.768c0.447-0.315,0.875-0.657,1.28-1.024C478.549,258.637,478.549,253.363,475.392,249.941z"/>
			<path d="M406.852,113.715c0.546-0.027,1.091-0.087,1.63-0.179c0.565-0.111,1.112-0.294,1.63-0.546
				c0.516-0.165,1.002-0.41,1.442-0.725c0.469-0.329,0.914-0.691,1.331-1.084c0.392-0.418,0.754-0.862,1.084-1.331
				c0.326-0.45,0.579-0.948,0.751-1.476c0.249-0.518,0.433-1.066,0.546-1.63c0.092-0.539,0.152-1.083,0.179-1.63
				c-0.203-4.626-3.907-8.33-8.533-8.533c-0.546,0.027-1.091,0.087-1.63,0.179c-0.564,0.112-1.112,0.296-1.63,0.546
				c-0.515,0.169-1.003,0.411-1.451,0.717c-0.463,0.337-0.904,0.702-1.323,1.092c-0.391,0.418-0.756,0.86-1.092,1.323
				c-0.308,0.446-0.549,0.935-0.717,1.451c-0.255,0.516-0.439,1.064-0.546,1.63c-0.092,0.539-0.152,1.083-0.179,1.63
				c0.043,2.266,0.96,4.428,2.56,6.033C402.502,112.738,404.623,113.642,406.852,113.715z"/>
		</g>
	</g>
</g>
<g>
</g>
<g>
</g>
<g>
</g>
<g>
</g>
<g>
</g>
<g>
</g>
<g>
</g>
<g>
</g>
<g>
</g>
<g>
</g>
<g>
</g>
<g>
</g>
<g>
</g>
<g>
</g>
<g>
</g>
</svg>
