<?xml version="1.0" encoding="iso-8859-1"?>
<!-- Generator: Adobe Illustrator 19.0.0, SVG Export Plug-In . SVG Version: 6.00 Build 0)  -->
<svg version="1.1" id="Capa_1" xmlns="http://www.w3.org/2000/svg" xmlns:xlink="http://www.w3.org/1999/xlink" x="0px" y="0px"
	 viewBox="0 0 511.991 511.991" style="enable-background:new 0 0 511.991 511.991;" xml:space="preserve">
<g transform="translate(-1)">
	<g>
		<g>
			<path d="M338.669,155.162c-3.022-1.581-4.884-4.74-4.804-8.149v-27.546c0-9.426-7.641-17.067-17.067-17.067H197.331
				c-9.426,0-17.067,7.641-17.067,17.067v27.861c0.068,3.217-1.695,6.194-4.548,7.68C98.469,192.08,56.124,276.75,72.798,360.793
				c16.674,84.044,88.136,146.134,173.685,150.908c3.584,0.193,7.157,0.29,10.718,0.29
				c103.626-0.075,187.592-84.099,187.597-187.725C444.554,252.275,403.391,186.687,338.669,155.162z M374.372,448.239
				c-34.055,32.405-80.033,49.22-126.959,46.43c-77.767-4.35-142.723-60.8-157.874-137.201
				c-15.151-76.401,23.346-153.367,93.567-187.066c6.747-3.328,11.663-9.486,13.414-16.802h43.477c4.713,0,8.533-3.821,8.533-8.533
				s-3.82-8.533-8.533-8.533h-42.667v-17.067h119.467v17.067h-42.667c-4.713,0-8.533,3.82-8.533,8.533s3.82,8.533,8.533,8.533h43.52
				c1.812,7.364,6.775,13.557,13.568,16.93c58.856,28.647,96.292,88.279,96.512,153.737
				C427.918,371.205,408.591,416.109,374.372,448.239z"/>
			<path d="M257.064,187.733c-75.405,0-136.533,61.128-136.533,136.533S181.659,460.8,257.064,460.8s136.533-61.128,136.533-136.533
				C393.508,248.898,332.432,187.823,257.064,187.733z M257.064,443.733c-65.98,0-119.467-53.487-119.467-119.467
				S191.085,204.8,257.064,204.8s119.467,53.487,119.467,119.467C376.46,390.217,323.015,443.663,257.064,443.733z"/>
			<path d="M205.864,85.333h102.4c9.426,0,17.067-7.641,17.067-17.067V51.2c0-1.548-0.422-3.068-1.22-4.395L300.994,8.286
				c-3.093-5.128-8.638-8.269-14.626-8.286h-58.607c-5.988,0.016-11.534,3.158-14.626,8.286l-23.117,38.519
				c-0.798,1.327-1.22,2.846-1.22,4.395v17.067C188.798,77.692,196.439,85.333,205.864,85.333z M205.864,53.564l21.897-36.497
				h58.607l21.897,36.497v14.703h-102.4V53.564z"/>
		</g>
	</g>
</g>
<g>
</g>
<g>
</g>
<g>
</g>
<g>
</g>
<g>
</g>
<g>
</g>
<g>
</g>
<g>
</g>
<g>
</g>
<g>
</g>
<g>
</g>
<g>
</g>
<g>
</g>
<g>
</g>
<g>
</g>
</svg>
