<?xml version="1.0" encoding="iso-8859-1"?>
<!-- Generator: Adobe Illustrator 19.0.0, SVG Export Plug-In . SVG Version: 6.00 Build 0)  -->
<svg version="1.1" id="Capa_1" xmlns="http://www.w3.org/2000/svg" xmlns:xlink="http://www.w3.org/1999/xlink" x="0px" y="0px"
	 viewBox="0 0 504.447 504.447" style="enable-background:new 0 0 504.447 504.447;" xml:space="preserve">
<g>
	<g>
		<g>
			<path d="M378.125,151.083h-49.597l30.796-51.082c1.498-2.517,2.255-5.406,2.182-8.335V16.838c0.095-2.935-0.622-5.84-2.073-8.393
				c-3.029-5.256-8.647-8.481-14.714-8.444H126.154c-9.057-0.103-16.49,7.142-16.619,16.199v278.159
				c0.129,9.057,7.562,16.302,16.619,16.199h102.509l-18.289,107.713c-0.018,0.279-0.018,0.56,0,0.839
				c0,0.201-0.117,0.378-0.117,0.588v76.38c-0.001,3.696,2.415,6.957,5.951,8.033c0.794,0.23,1.616,0.343,2.443,0.336
				c2.801,0,5.417-1.398,6.975-3.727l165.023-246.633c2.789-4.148,4.274-9.035,4.264-14.034v-72.687
				C394.76,158.24,387.252,150.957,378.125,151.083z M308.938,151.083h-26.02L344.77,48.599l0.067,42.941L308.938,151.083z
				 M344.795,15.949v0.092l-76.699,127.094c-3.104,4.912-3.256,11.133-0.395,16.191c2.995,5.315,8.638,8.586,14.739,8.544h95.148
				L233.473,382.541l24.668-145.207c0.807-4.677-0.499-9.472-3.567-13.094c-3.202-3.824-7.938-6.026-12.926-6.01l-115.326,0.588
				l-0.168-202.03L344.795,15.949z M126.322,294.359v-59.342l115.267-0.562l-10.081,59.316L126.322,294.359z M378.125,240.054
				c0.005,1.67-0.489,3.304-1.418,4.692L227.043,468.422v-46.164l151.082-225.011L378.125,240.054z"/>
			<path d="M151.502,134.296c4.636,0,8.393-3.758,8.393-8.393V41.968c0-4.636-3.758-8.393-8.393-8.393s-8.393,3.758-8.393,8.393
				v83.934C143.109,130.538,146.867,134.296,151.502,134.296z"/>
			<path d="M151.502,201.444c4.636,0,8.393-3.758,8.393-8.393v-33.574c0-4.636-3.758-8.393-8.393-8.393s-8.393,3.758-8.393,8.393
				v33.574C143.109,197.686,146.867,201.444,151.502,201.444z"/>
		</g>
	</g>
</g>
<g>
</g>
<g>
</g>
<g>
</g>
<g>
</g>
<g>
</g>
<g>
</g>
<g>
</g>
<g>
</g>
<g>
</g>
<g>
</g>
<g>
</g>
<g>
</g>
<g>
</g>
<g>
</g>
<g>
</g>
</svg>
