<svg xmlns="http://www.w3.org/2000/svg" viewBox="0 0 504.4 504.4" class="undefined">
        <path d="M378.1 151.1h-49.6l30.8-51.1c1.5-2.5 2.3-5.4 2.2-8.3V16.8c0.1-2.9-0.6-5.8-2.1-8.4 -3-5.3-8.6-8.5-14.7-8.4H126.2c-9.1-0.1-16.5 7.1-16.6 16.2v278.2c0.1 9.1 7.6 16.3 16.6 16.2h102.5l-18.3 107.7c0 0.3 0 0.6 0 0.8 0 0.2-0.1 0.4-0.1 0.6v76.4c0 3.7 2.4 7 6 8 0.8 0.2 1.6 0.3 2.4 0.3 2.8 0 5.4-1.4 7-3.7l165-246.6c2.8-4.1 4.3-9 4.3-14v-72.7C394.8 158.2 387.3 151 378.1 151.1zM308.9 151.1h-26L344.8 48.6l0.1 42.9L308.9 151.1zM344.8 15.9v0.1l-76.7 127.1c-3.1 4.9-3.3 11.1-0.4 16.2 3 5.3 8.6 8.6 14.7 8.5h95.1L233.5 382.5l24.7-145.2c0.8-4.7-0.5-9.5-3.6-13.1 -3.2-3.8-7.9-6-12.9-6l-115.3 0.6 -0.2-202L344.8 15.9zM126.3 294.4v-59.3l115.3-0.6 -10.1 59.3L126.3 294.4zM378.1 240.1c0 1.7-0.5 3.3-1.4 4.7L227 468.4v-46.2l151.1-225L378.1 240.1z" class="undefined"/>
        <path d="M151.5 134.3c4.6 0 8.4-3.8 8.4-8.4V42c0-4.6-3.8-8.4-8.4-8.4s-8.4 3.8-8.4 8.4v83.9C143.1 130.5 146.9 134.3 151.5 134.3z" class="undefined"/>
        <path d="M151.5 201.4c4.6 0 8.4-3.8 8.4-8.4v-33.6c0-4.6-3.8-8.4-8.4-8.4s-8.4 3.8-8.4 8.4v33.6C143.1 197.7 146.9 201.4 151.5 201.4z" class="undefined"/>
</svg>