<?xml version="1.0" encoding="iso-8859-1"?>
<!-- Generator: Adobe Illustrator 19.0.0, SVG Export Plug-In . SVG Version: 6.00 Build 0)  -->
<svg version="1.1" id="Capa_1" xmlns="http://www.w3.org/2000/svg" xmlns:xlink="http://www.w3.org/1999/xlink" x="0px" y="0px"
	 viewBox="0 0 511.912 511.912" style="enable-background:new 0 0 511.912 511.912;" xml:space="preserve">
<g>
	<g>
		<path d="M508.811,279.561L399.789,191.07l9.489-35.379c0.094-0.484,0.145-0.975,0.154-1.468c0.048-0.282,0.08-0.567,0.094-0.853
			c0.001-0.993-0.176-1.979-0.521-2.91c-0.06-0.154-0.179-0.29-0.247-0.444c-0.351-0.779-0.817-1.501-1.382-2.142
			c-0.094-0.111-0.128-0.247-0.23-0.358L268.435,5.069c-2.636-2.596-6.056-4.249-9.728-4.702c-0.068,0-0.102-0.068-0.171-0.094
			c-0.282-0.047-0.567-0.079-0.853-0.094C257.119,0.061,256.545,0,255.968,0c-0.574-0.001-1.146,0.059-1.707,0.179
			c-0.29,0.06-0.58,0-0.853,0.094c-0.068,0-0.102,0.077-0.171,0.094c-3.672,0.453-7.092,2.106-9.728,4.702L104.792,147.507
			c-0.102,0.111-0.137,0.247-0.23,0.358c-0.565,0.641-1.031,1.363-1.382,2.142c-0.068,0.154-0.188,0.29-0.247,0.444
			c-0.345,0.931-0.521,1.917-0.521,2.91c0.014,0.286,0.045,0.571,0.094,0.853c0.008,0.493,0.06,0.984,0.154,1.468l9.489,35.379
			L3.125,279.561c-2.976,2.433-3.925,6.575-2.304,10.061c0,0.111,0,0.23,0.06,0.341l67.584,204.39
			c4.3,11.032,15.164,18.087,26.991,17.527h47.957c11.825,0.544,22.677-6.52,26.965-17.553l12.8-38.656l8.294,30.916
			c4.012,14.892,17.499,25.254,32.922,25.293h63.147c15.436-0.019,28.945-10.38,32.964-25.284l8.294-30.916l12.8,38.673
			c4.292,11.007,15.12,18.057,26.923,17.527h47.957c11.82,0.544,22.669-6.516,26.957-17.544l67.584-204.373
			c0-0.111,0-0.23,0.06-0.341C512.709,286.143,511.775,282.003,508.811,279.561z M100.892,222.2L77.28,287.096
			c-1.612,4.43,0.673,9.328,5.103,10.94c4.43,1.612,9.328-0.673,10.94-5.103l26.564-73.045l25.677,95.727H77.178
			c-0.699-0.332-1.439-0.567-2.202-0.7l-51.968-29.5L100.892,222.2z M95.456,494.814c-4.433,0.389-8.669-1.909-10.76-5.837
			l-60.587-183.33l42.155,23.893l29.901,165.274H95.456z M113.513,494.814l-29.38-162.133h66.022l2.714,10.155l-27.46,151.979
			H113.513z M154.174,488.977c-2.092,3.928-6.328,6.225-10.761,5.837h-0.708l20.523-113.374l11.861,44.211L154.174,488.977z
			 M224.395,494.814c-7.718-0.007-14.47-5.192-16.469-12.646l0.009-0.017l-82.714-308.19l63.147,44.177l40.653,276.676H224.395z
			 M246.274,494.814l-40.158-273.067h75.452c4.713,0,8.533-3.821,8.533-8.533c0-4.713-3.82-8.533-8.533-8.533h-82.645
			l-74.889-52.429L238.628,34.978l-42.001,133.009c-0.682,2.159-0.478,4.501,0.567,6.509s2.846,3.52,5.005,4.2
			c0.832,0.257,1.698,0.386,2.569,0.384c3.727,0,7.023-2.418,8.141-5.973l43.059-136.354l43.059,136.354
			c1.118,3.555,4.414,5.974,8.141,5.973c0.868-0.002,1.731-0.134,2.56-0.393c2.16-0.681,3.96-2.191,5.005-4.2
			s1.249-4.35,0.567-6.509L273.103,34.321l114.816,117.922l-77.107,53.982l-0.077,0.077c-0.604,0.495-1.138,1.069-1.587,1.707
			c-0.247,0.243-0.48,0.5-0.7,0.768c-0.159,0.349-0.296,0.708-0.41,1.075c-0.334,0.647-0.58,1.336-0.734,2.048v0.111
			l-41.643,282.803H246.274z M304.019,482.15c-1.993,7.464-8.752,12.659-16.478,12.663h-4.617l40.695-276.719l63.147-44.177
			L304.019,482.15z M368.523,494.814c-4.43,0.385-8.662-1.912-10.752-5.837h0.009l-20.932-63.283l11.861-44.211l20.523,113.331
			H368.523z M386.571,494.814l-27.503-151.979l2.714-10.155h66.014l-29.372,162.133H386.571z M427.249,488.977
			c-2.093,3.931-6.333,6.229-10.769,5.837h-0.708l29.935-165.239l42.155-23.893L427.249,488.977z M436.952,314.914
			c-0.76,0.132-1.497,0.367-2.193,0.7h-68.386l25.677-95.727l26.564,73.045c1.612,4.43,6.51,6.715,10.94,5.103
			c4.43-1.612,6.715-6.51,5.103-10.94l-23.603-64.853l77.875,63.172L436.952,314.914z"/>
	</g>
</g>
<g>
</g>
<g>
</g>
<g>
</g>
<g>
</g>
<g>
</g>
<g>
</g>
<g>
</g>
<g>
</g>
<g>
</g>
<g>
</g>
<g>
</g>
<g>
</g>
<g>
</g>
<g>
</g>
<g>
</g>
</svg>
