<?xml version="1.0" encoding="iso-8859-1"?>
<!-- Generator: Adobe Illustrator 19.0.0, SVG Export Plug-In . SVG Version: 6.00 Build 0)  -->
<svg version="1.1" id="Capa_1" xmlns="http://www.w3.org/2000/svg" xmlns:xlink="http://www.w3.org/1999/xlink" x="0px" y="0px"
	 viewBox="0 0 509.146 509.146" style="enable-background:new 0 0 509.146 509.146;" xml:space="preserve">
<g>
	<g>
		<g>
			<path d="M343.554,340.801c-4.487-1.299-9.185,1.252-10.539,5.722c-18.161,61.914-74.853,104.53-139.375,104.772
				c-4.713,0-8.533,3.821-8.533,8.533c0,4.713,3.82,8.533,8.533,8.533c72.108-0.277,135.464-47.903,155.768-117.094
				C350.65,346.765,348.041,342.1,343.554,340.801z"/>
			<path d="M338.706,306.229c0,2.702-0.074,5.39-0.222,8.064c-0.128,2.263,0.649,4.483,2.161,6.172
				c1.511,1.689,3.632,2.707,5.895,2.831h0.478c4.535,0.007,8.284-3.535,8.533-8.064c0.148-2.975,0.222-5.976,0.222-9.003
				c0-4.713-3.82-8.533-8.533-8.533S338.706,301.516,338.706,306.229z"/>
			<path d="M77.16,327.238c10.587,8.706,23.955,13.31,37.658,12.971c26.965,0,57.847-15.104,81.067-42.453
				c35.448-41.745,39.885-96.427,9.882-121.924c-30.003-25.498-83.268-12.262-118.716,29.483
				C51.602,247.059,47.156,301.74,77.16,327.238z M100.063,216.364c19.942-23.475,45.926-36.693,67.695-36.693
				c9.8-0.281,19.373,2.979,26.965,9.182c22.835,19.396,17.519,63.3-11.844,97.869c-29.363,34.569-71.834,46.933-94.66,27.529
				C65.392,294.845,70.7,250.941,100.063,216.364z"/>
			<path d="M105.695,362.498h-0.009c-6.912-3.989-15.387-4.157-22.451-0.444c-12.433,7.185-14.507,26.069-4.736,43.017
				c5.64,11.345,16.762,18.952,29.38,20.096c3.591,0.025,7.124-0.903,10.24-2.688c6.753-4.263,10.848-11.692,10.846-19.678
				C129.15,386.125,120.23,370.674,105.695,362.498z M109.578,407.69v0.034c-2.961,1.707-10.94-1.894-16.299-11.153
				s-4.454-17.997-1.51-19.695c0.54-0.289,1.146-0.43,1.758-0.41c1.545,0.079,3.051,0.511,4.403,1.263
				c8.531,5.125,13.817,14.285,13.986,24.235C112.062,404.131,111.199,406.244,109.578,407.69z"/>
			<path d="M508.315,80.761c3.228-24.453-3.022-49.214-17.468-69.205c-2.268-2.918-6.157-4.045-9.634-2.79
				c-3.486,1.274-5.749,4.654-5.598,8.363c0.316,7.885-1.527,31.147-13.713,43.836c-1.976,2.072-4.241,3.848-6.724,5.274
				c4.67-11.379,5.127-24.052,1.289-35.738c-1.136-3.456-4.338-5.812-7.976-5.868c-3.638-0.056-6.911,2.201-8.152,5.621
				c-5.557,13.239-19.072,21.331-33.365,19.977c-17.067-1.382-34.432,12.885-44.262,36.207
				c-9.131,21.641-12.015,53.257,7.236,75.486c-7.103,7.883-14.906,15.107-23.313,21.581
				c-66.573-82.478-186.849-96.649-270.767-31.901S-24.858,336.285,38.034,421.604s182.43,104.751,269.108,43.746
				c86.678-61.005,108.727-180.088,49.638-268.083c9.327-7.172,17.965-15.197,25.805-23.97
				c14.897,11.494,33.12,17.847,51.934,18.108c18.682,0.272,36.706-6.89,50.108-19.908c23.322-23.663,15.479-38.144,13.653-40.806
				c-1.532-2.2-4.003-3.558-6.681-3.674c-2.678-0.115-5.257,1.025-6.972,3.085c-2.445,2.773-5.504,4.935-8.934,6.315
				C492.688,122.206,504.219,102.533,508.315,80.761z M372.84,306.229c0.147,87.436-62.717,162.262-148.868,177.196
				c-86.151,14.934-170.532-34.367-199.824-116.75s5.027-173.888,81.268-216.692s172.233-24.459,227.316,43.444
				c-11.008,7.109-22.568,13.324-34.568,18.586c-1.128-2.649-1.844-5.455-2.125-8.32c-0.075-4.659-3.873-8.397-8.533-8.397
				c-4.713,0-8.533,3.82-8.533,8.533c1.526,16.445,10.224,31.381,23.774,40.823c3.717,2.817,9.008,2.127,11.878-1.549
				s2.259-8.975-1.374-11.9c-1.914-1.491-3.733-3.101-5.444-4.821c12.16-5.475,23.882-11.873,35.063-19.14
				C362.434,236.546,372.864,270.995,372.84,306.229z M443.747,144.625c0.324,3.147,2.362,5.856,5.295,7.04
				c9.053,3.869,19.147,4.566,28.646,1.98c-1.626,2.053-3.367,4.013-5.214,5.871c-17.98,18.167-53.811,22.75-85.086-4.267
				c-0.171-0.154-0.247-0.358-0.427-0.495c-0.124-0.075-0.253-0.143-0.384-0.205c-17.067-15.215-16.418-41.813-8.115-61.44
				c6.494-15.411,17.186-25.847,26.308-25.847c0.299,0,0.606,0,0.905,0c12.334,1.227,24.673-2.281,34.517-9.813
				c-1.864,5.76-4.874,11.084-8.849,15.65c-2.35,2.472-3.002,6.106-1.658,9.241c1.344,3.135,4.426,5.169,7.837,5.171
				c13.745,0.48,27.053-4.869,36.642-14.729c7.052-7.737,12.108-17.078,14.729-27.213c3.358,10.47,4.235,21.577,2.56,32.444
				c-3.558,21.828-18.347,41.557-43.955,58.641C444.867,138.411,443.424,141.478,443.747,144.625z"/>
		</g>
	</g>
</g>
<g>
</g>
<g>
</g>
<g>
</g>
<g>
</g>
<g>
</g>
<g>
</g>
<g>
</g>
<g>
</g>
<g>
</g>
<g>
</g>
<g>
</g>
<g>
</g>
<g>
</g>
<g>
</g>
<g>
</g>
</svg>
