<svg xmlns="http://www.w3.org/2000/svg" id="Capa_1" viewBox="0 0 512 512">
	<path class="part1" d="M460.8 17.1H143.5C139.9 6.9 130.3 0 119.5 0H51.2C37.1 0 25.6 11.5 25.6 25.6v460.8c0 14.1 11.5 25.6 25.6 25.6h68.3c10.8 0 20.4-6.9 24-17.1H460.8c14.1 0 25.6-11.5 25.6-25.6V42.7C486.4 28.5 474.9 17.1 460.8 17.1zM128 486.4c0 4.7-3.8 8.5-8.5 8.5H51.2c-4.7 0-8.5-3.8-8.5-8.5v-44.2c2.7 1 5.6 1.5 8.5 1.6h68.3c2.9 0 5.8-0.6 8.5-1.6V486.4zM128 418.1c0 4.7-3.8 8.5-8.5 8.5H51.2c-4.7 0-8.5-3.8-8.5-8.5V25.6c0-4.7 3.8-8.5 8.5-8.5h68.3c4.7 0 8.5 3.8 8.5 8.5V418.1zM469.3 443.7h-51.2c-4.7 0-8.5 3.8-8.5 8.5 0 4.7 3.8 8.5 8.5 8.5h51.2v8.5c0 4.7-3.8 8.5-8.5 8.5H145.1v-51.2H460.8c2.9 0 5.8-0.6 8.5-1.6V443.7zM469.3 392.5v8.5c0 4.7-3.8 8.5-8.5 8.5h-64.7l73.3-73.3V392.5zM469.3 312.2l-97.4 97.4H145.1V34.1h226.9l97.4 97.4V312.2zM469.3 107.4l-73.3-73.3H460.8c4.7 0 8.5 3.8 8.5 8.5V107.4z"/>
	<path class="part2" d="M384 443.7H196.3c-4.7 0-8.5 3.8-8.5 8.5 0 4.7 3.8 8.5 8.5 8.5H384c4.7 0 8.5-3.8 8.5-8.5C392.5 447.6 388.7 443.7 384 443.7z"/>
	<path class="part3" d="M93.9 460.8H76.8c-4.7 0-8.5 3.8-8.5 8.5s3.8 8.5 8.5 8.5h17.1c4.7 0 8.5-3.8 8.5-8.5S98.6 460.8 93.9 460.8z"/>
	<path class="part4" d="M179.2 226.1c0.1 63.6 51.6 115.1 115.2 115.2 63.6 0 115.2-51.6 115.2-115.2s-51.6-115.2-115.2-115.2S179.2 162.5 179.2 226.1zM279.2 129.3l-18.1 32.8H220.2C235.3 144.5 256.3 132.9 279.2 129.3zM317.7 179.2l25.9 46.9 -25.9 46.9h-46.5l-25.9-46.9L271.1 179.2H317.7zM251.7 179.2l-16.2 29.3L219.3 179.2H251.7zM204.3 264.9c-10.7-24.7-10.7-52.8 0-77.5l21.4 38.8L204.3 264.9zM235.5 243.8l16.1 29.3h-32.3L235.5 243.8zM220.2 290.1h40.9l18.2 32.8C256.3 319.4 235.3 307.7 220.2 290.1zM294.4 315.2l-13.8-25h27.7L294.4 315.2zM309.6 323l18.2-32.8h40.9C353.5 307.7 332.5 319.4 309.6 323zM337.2 273.1l16.2-29.3 16.2 29.3H337.2zM384.5 187.4c10.7 24.7 10.7 52.8 0 77.5v0l-21.4-38.8L384.5 187.4zM353.3 208.5L337.2 179.2h32.4L353.3 208.5zM368.6 162.1h-40.9l-18.1-32.8C332.5 132.9 353.5 144.5 368.6 162.1zM280.6 162.1l13.8-25 13.8 25H280.6z"/>
</svg>