<svg xmlns="http://www.w3.org/2000/svg" viewBox="0 0 512 512" class="undefined">
	<path fill="#ddd" d="M460.8 17.1H143.5C139.9 6.9 130.3 0 119.5 0H51.2C37.1 0 25.6 11.5 25.6 25.6v460.8c0 14.1 11.5 25.6 25.6 25.6h68.3c10.8 0 20.4-6.9 24-17.1H460.8c14.1 0 25.6-11.5 25.6-25.6V42.7C486.4 28.5 474.9 17.1 460.8 17.1zM128 486.4c0 4.7-3.8 8.5-8.5 8.5H51.2c-4.7 0-8.5-3.8-8.5-8.5v-44.2c2.7 1 5.6 1.5 8.5 1.6h68.3c2.9 0 5.8-0.6 8.5-1.6V486.4zM128 418.1c0 4.7-3.8 8.5-8.5 8.5H51.2c-4.7 0-8.5-3.8-8.5-8.5v-68.3 -76.8H128V418.1zM128 256H42.7v-85.3H128V256zM128 153.6H42.7v-128c0-4.7 3.8-8.5 8.5-8.5h68.3c4.7 0 8.5 3.8 8.5 8.5V153.6zM145.1 179.2h142l41 34.1 -41 34.1H145.1V179.2zM469.3 443.7h-51.2c-4.7 0-8.5 3.8-8.5 8.5 0 4.7 3.8 8.5 8.5 8.5h51.2v8.5c0 4.7-3.8 8.5-8.5 8.5H145.1v-51.2H460.8c2.9 0 5.8-0.6 8.5-1.6V443.7zM469.3 392.5v8.5c0 4.7-3.8 8.5-8.5 8.5h-64.7l73.3-73.3V392.5zM469.3 312.2l-97.4 97.4H145.1V264.5h145.1c2 0 3.9-0.7 5.5-2l51.2-42.7c1.9-1.6 3.1-4 3.1-6.6s-1.1-4.9-3.1-6.6l-51.2-42.7c-1.5-1.3-3.5-2-5.5-2H145.1v-128h226.9l97.4 97.4V312.2zM469.3 107.4l-73.3-73.3H460.8c4.7 0 8.5 3.8 8.5 8.5V107.4z" class="undefined"/>
	<path fill="#ddd" d="M264.5 196.3c-4.7 0-8.5 3.8-8.5 8.5v17.1c0 4.7 3.8 8.5 8.5 8.5s8.5-3.8 8.5-8.5V204.8C273.1 200.1 269.2 196.3 264.5 196.3z" class="undefined"/>
	<path fill="#ddd" d="M384 443.7H196.3c-4.7 0-8.5 3.8-8.5 8.5 0 4.7 3.8 8.5 8.5 8.5H384c4.7 0 8.5-3.8 8.5-8.5C392.5 447.6 388.7 443.7 384 443.7z" class="undefined"/>
	<path fill="#ddd" d="M93.9 460.8H76.8c-4.7 0-8.5 3.8-8.5 8.5s3.8 8.5 8.5 8.5h17.1c4.7 0 8.5-3.8 8.5-8.5S98.6 460.8 93.9 460.8z" class="undefined"/>
</svg>