<?xml version="1.0" encoding="iso-8859-1"?>
<!-- Generator: Adobe Illustrator 19.0.0, SVG Export Plug-In . SVG Version: 6.00 Build 0)  -->
<svg version="1.1" id="Capa_1" xmlns="http://www.w3.org/2000/svg" xmlns:xlink="http://www.w3.org/1999/xlink" x="0px" y="0px"
	 viewBox="0 0 512.017 512.017" style="enable-background:new 0 0 512.017 512.017;" xml:space="preserve">
<g transform="translate(0 -1)">
	<g>
		<g>
			<path d="M508.814,2.896c-2.2-1.759-5.126-2.32-7.82-1.498l-143.957,43.52c-2.7,0.814-4.824,2.909-5.675,5.598
				c-0.247,0.777-24.661,77.517-57.66,123.281c-45.389,62.993-121.335,138.581-145.348,162.022l-8.346-9.83
				c-7.875-10.265-21.946-13.464-33.485-7.612c-5.822,3.387-9.818,9.206-10.889,15.855c-1.207,8.506,1.298,17.121,6.878,23.654
				l4.685,5.53l-56.055,63.07c-12.629-2.171-25.577,1.276-35.456,9.438C6.751,443.347,1.16,454.04,0.161,465.614
				c-0.999,11.574,2.678,23.066,10.209,31.911c15.765,18.359,43.333,20.701,61.969,5.265c8.962-7.424,14.559-18.142,15.531-29.739
				c0.094-1.135-0.051-2.244-0.043-3.413l72.192-44.049l5.12,5.973c5.541,6.547,13.612,10.418,22.187,10.641
				c5.28,0.045,10.402-1.795,14.447-5.188c4.703-3.903,7.612-9.554,8.055-15.65c0.527-7.895-2.055-15.683-7.194-21.7l-2.338-2.756
				c15.812-6.997,81.297-39.817,183.697-138.692c116.753-112.922,127.573-242.56,128-248.021
				C512.203,7.386,511.014,4.655,508.814,2.896z M70.875,471.639c-0.605,7.036-4.006,13.536-9.442,18.045
				c-11.429,9.493-28.361,8.061-38.033-3.217c-4.581-5.373-6.819-12.356-6.214-19.39s4.001-13.533,9.431-18.046
				c11.432-9.484,28.356-8.052,38.033,3.217C69.238,457.617,71.48,464.602,70.875,471.639z M84.192,451.923
				c-1.649-3.875-3.854-7.488-6.545-10.726c-2.767-3.158-5.978-5.897-9.532-8.132l50.236-56.508l30.481,35.9L84.192,451.923z
				 M190.833,423.968h0.026c-3.721,3.081-9.865,0-12.698-3.413l-62.609-73.745c-2.33-2.692-3.439-6.23-3.063-9.771
				c0.223-1.685,1.233-3.165,2.722-3.985c3.516-2.065,8.849,0.452,11.81,3.942l62.609,73.745c2.171,2.557,3.315,5.829,3.208,9.182
				C192.786,421.498,192.054,422.973,190.833,423.968z M372.089,245.937C267.863,346.631,201.798,377.692,191.772,382.061
				c-1.097,0.222-2.138,0.66-3.063,1.289l-29.278-34.483c23.415-22.793,101.436-100.301,148.122-165.094
				c30.387-42.129,52.907-106.487,58.684-123.81l49.63-15.002c-7.031,39.824-22.571,77.662-45.559,110.933
				c-2.649,3.9-1.634,9.208,2.266,11.857c3.9,2.649,9.208,1.634,11.857-2.266c26.214-37.488,43.161-80.66,49.451-125.969
				l59.383-17.92C477.395,107.232,435.005,185.713,372.089,245.937z"/>
			<path d="M356.879,187.795c-3.535-3.127-8.935-2.797-12.062,0.738l0.034,0.026c-5.052,5.692-10.402,11.332-15.915,16.759
				c-2.321,2.101-3.305,5.305-2.563,8.347c0.742,3.042,3.089,5.433,6.117,6.231c3.028,0.797,6.249-0.127,8.393-2.409
				c5.811-5.683,11.435-11.657,16.734-17.63C360.744,196.323,360.413,190.922,356.879,187.795z"/>
		</g>
	</g>
</g>
<g>
</g>
<g>
</g>
<g>
</g>
<g>
</g>
<g>
</g>
<g>
</g>
<g>
</g>
<g>
</g>
<g>
</g>
<g>
</g>
<g>
</g>
<g>
</g>
<g>
</g>
<g>
</g>
<g>
</g>
</svg>
