<?xml version="1.0" encoding="iso-8859-1"?>
<!-- Generator: Adobe Illustrator 19.0.0, SVG Export Plug-In . SVG Version: 6.00 Build 0)  -->
<svg version="1.1" id="Capa_1" xmlns="http://www.w3.org/2000/svg" xmlns:xlink="http://www.w3.org/1999/xlink" x="0px" y="0px"
	 viewBox="0 0 512.043 512.043" style="enable-background:new 0 0 512.043 512.043;" xml:space="preserve">
<g transform="translate(-1 -1)">
	<g>
		<g>
			<path d="M480.608,33.451C456.186,9.063,423.622-7.62,406.795,5.735c-0.348,0.199-0.681,0.421-0.998,0.666l-41.02,41.02
				l-4.019-2.833c-38.024-24.09-68.267-29.517-83.046-14.865l-37.419,37.419c-10.419,10.428-10.086,27.657-2.833,47.727
				L34.511,317.825c-44.659,44.659-44.659,117.065,0,161.724c44.659,44.659,117.065,44.659,161.724,0L399.14,276.651
				c8.17,3.204,16.828,4.988,25.6,5.274c8.198,0.429,16.215-2.516,22.187-8.149l37.419-37.419
				c14.626-14.737,9.199-45.005-15.061-83.285c-0.853-1.271-1.775-2.509-2.654-3.763l40.107-40.107l0.853-0.853
				c0.256-0.322,0.484-0.664,0.683-1.024C521.662,90.36,504.962,57.848,480.608,33.451z M184.169,467.482
				c-37.995,37.995-99.597,37.995-137.591,0c-37.995-37.995-37.995-99.597,0-137.591l19.14-19.106
				c14.78,26.351,82.091,40.107,148.753,40.107c32.818,0.345,65.551-3.402,97.442-11.153L184.169,467.482z M347.42,304.231
				l-4.267,4.267c-15.983,12.331-62.729,25.327-128.683,25.327c-82.261,0-134.758-20.215-134.758-34.133
				c0.14-1.905,0.915-3.708,2.202-5.12l3.115-3.115c15.266-12.51,62.49-25.899,129.442-25.899
				c82.27,0,134.767,20.216,134.767,34.133C349.111,301.355,348.477,302.94,347.42,304.231z M363.164,288.487
				c-14.942-26.291-82.142-39.996-148.693-39.996c-32.915-0.346-65.745,3.426-97.724,11.23l128-128
				c15.648,28.981,35.582,55.434,59.127,78.464c23.018,23.554,49.459,43.499,78.43,59.162L363.164,288.487z M434.861,261.718
				c-11.554,11.52-62.362-7.091-118.895-63.625c-25.378-23.965-46.014-52.498-60.826-84.104
				c-7.083-17.195-7.799-29.705-2.765-34.739l18.091-18.15c5.171,31.881,35.2,76.058,70.827,111.676
				c23.581,24.396,50.922,44.851,80.981,60.587c9.615,4.927,19.889,8.442,30.507,10.436L434.861,261.718z M472.28,224.282
				c-4.668,4.668-18.295,5.478-42.556-6.298c-28.348-14.895-54.129-34.232-76.365-57.276
				c-56.516-56.508-75.093-107.332-63.607-118.886c6.724-6.682,28.467-3.951,61.508,16.973l1.254,0.853l-0.23,0.23
				c-16.085,16.094,1.118,50.125,26.453,75.435c11.414,11.814,24.954,21.368,39.91,28.16c5.997,2.706,12.47,4.2,19.046,4.395
				c6.101,0.279,12.052-1.943,16.478-6.153l0.239-0.239c0.196,0.341,0.435,0.666,0.64,0.956h0.009
				C476.213,195.832,478.953,217.567,472.28,224.282z M442.072,149.692c-1.758,1.707-7.782,1.877-16.887-1.929
				c-12.888-5.968-24.557-14.275-34.415-24.499c-24.107-24.107-30.814-46.933-26.453-51.302l36.087-36.087
				c6.368,17.899,16.894,34.031,30.711,47.07c13.055,13.802,29.216,24.29,47.138,30.592L442.072,149.692z M494.722,97.076
				c-4.48,4.454-27.426-2.074-51.55-26.189c-24.124-24.115-30.652-47.07-26.189-51.541c1.276-0.996,2.886-1.464,4.497-1.306
				c8.823,0,27.554,8.013,47.044,27.494C492.623,69.641,499.177,92.596,494.722,97.076z"/>
			<path d="M69.301,359.425c-1.114,0.053-2.21,0.295-3.243,0.717c-1.023,0.428-1.951,1.055-2.731,1.843
				c-0.393,0.411-0.755,0.85-1.084,1.314c-0.307,0.445-0.551,0.93-0.725,1.442c-0.25,0.517-0.431,1.065-0.538,1.63l-0.213,1.587
				c0.07,2.243,0.984,4.376,2.56,5.973c0.792,0.779,1.732,1.392,2.765,1.801c1.012,0.453,2.101,0.71,3.209,0.759l1.621-0.179
				c0.563-0.106,1.109-0.289,1.621-0.546c0.514-0.164,1.001-0.406,1.442-0.717c0.458-0.338,0.889-0.712,1.289-1.118
				c2.503-2.392,3.227-6.101,1.809-9.259C75.771,361.526,72.711,359.462,69.301,359.425z"/>
			<path d="M113.589,418.979c0.563-0.106,1.109-0.289,1.621-0.546c0.514-0.164,1.001-0.406,1.442-0.717
				c0.458-0.338,0.889-0.712,1.289-1.118c2.503-2.392,3.227-6.101,1.809-9.259c-1.313-3.147-4.373-5.211-7.782-5.248
				c-1.114,0.053-2.21,0.295-3.243,0.717c-1.032,0.414-1.972,1.029-2.765,1.809c-0.393,0.411-0.755,0.85-1.084,1.314
				c-0.307,0.445-0.551,0.93-0.725,1.442c-0.25,0.517-0.431,1.065-0.538,1.63l-0.179,1.621c0.07,2.243,0.984,4.376,2.56,5.973
				c0.792,0.779,1.732,1.392,2.765,1.801c1.012,0.453,2.101,0.71,3.209,0.759L113.589,418.979z"/>
			<path d="M120.501,453.291c-1.114,0.053-2.21,0.295-3.243,0.717c-1.032,0.414-1.972,1.029-2.765,1.809
				c-0.393,0.411-0.755,0.85-1.084,1.314c-0.307,0.445-0.551,0.93-0.725,1.442c-0.25,0.517-0.431,1.065-0.538,1.63l-0.179,1.621
				c0.07,2.243,0.984,4.376,2.56,5.973c0.792,0.779,1.732,1.392,2.765,1.801c1.012,0.453,2.101,0.71,3.209,0.759l1.621-0.179
				c0.563-0.106,1.109-0.289,1.621-0.546c0.514-0.164,1.001-0.406,1.442-0.717c0.458-0.338,0.889-0.712,1.289-1.118
				c2.503-2.392,3.227-6.101,1.809-9.259C126.971,455.392,123.911,453.329,120.501,453.291z"/>
			<path d="M154.635,376.491c-1.114,0.053-2.21,0.295-3.243,0.717c-1.032,0.414-1.972,1.029-2.765,1.809
				c-0.393,0.411-0.755,0.85-1.084,1.314c-0.307,0.445-0.551,0.93-0.725,1.442c-0.25,0.517-0.431,1.065-0.538,1.63l-0.179,1.621
				c0.07,2.243,0.984,4.376,2.56,5.973c0.792,0.779,1.732,1.392,2.765,1.8c1.012,0.453,2.101,0.71,3.209,0.759l1.621-0.179
				c0.563-0.106,1.109-0.289,1.621-0.546c0.514-0.164,1.001-0.406,1.442-0.717c0.458-0.338,0.889-0.712,1.289-1.118
				c2.503-2.392,3.227-6.101,1.809-9.259C161.105,378.592,158.044,376.529,154.635,376.491z"/>
			<path d="M180.235,419.158c-1.114,0.053-2.21,0.295-3.243,0.717c-1.032,0.414-1.972,1.029-2.765,1.809
				c-0.393,0.411-0.755,0.85-1.084,1.314c-0.307,0.445-0.551,0.93-0.725,1.442c-0.25,0.517-0.431,1.065-0.538,1.63l-0.179,1.621
				c0.07,2.243,0.984,4.376,2.56,5.973c0.792,0.779,1.732,1.392,2.765,1.801c1.012,0.453,2.101,0.71,3.209,0.759l1.621-0.179
				c0.563-0.106,1.109-0.289,1.621-0.546c0.514-0.164,1.001-0.406,1.442-0.717c0.458-0.338,0.889-0.712,1.289-1.118
				c2.503-2.392,3.227-6.101,1.809-9.259C186.705,421.259,183.644,419.195,180.235,419.158z"/>
			<path d="M228.226,384.265c1.012,0.453,2.101,0.71,3.209,0.759l1.621-0.179c0.563-0.106,1.109-0.289,1.621-0.546
				c0.514-0.164,1.001-0.406,1.442-0.717c0.458-0.338,0.889-0.712,1.289-1.118c2.503-2.392,3.227-6.101,1.809-9.259l0.034,0.034
				c-1.307-3.172-4.386-5.253-7.817-5.282c-1.114,0.053-2.21,0.295-3.243,0.717c-1.032,0.414-1.972,1.029-2.765,1.809
				c-0.393,0.411-0.755,0.85-1.084,1.314c-0.307,0.445-0.551,0.93-0.725,1.442c-0.25,0.517-0.431,1.065-0.538,1.63l-0.179,1.621
				c0.07,2.243,0.984,4.376,2.56,5.973C226.253,383.244,227.193,383.857,228.226,384.265z"/>
			<path d="M60.768,410.625c-1.114,0.053-2.21,0.295-3.243,0.717c-1.023,0.428-1.951,1.055-2.731,1.843
				c-0.393,0.411-0.755,0.85-1.084,1.314c-0.307,0.445-0.551,0.93-0.725,1.442c-0.25,0.517-0.431,1.065-0.538,1.63l-0.213,1.587
				c0.07,2.243,0.984,4.376,2.56,5.973c0.792,0.779,1.732,1.392,2.765,1.801c1.012,0.453,2.101,0.71,3.209,0.759l1.621-0.179
				c0.563-0.106,1.109-0.289,1.621-0.546c0.514-0.164,1.001-0.406,1.442-0.717c0.458-0.338,0.889-0.712,1.289-1.118
				c2.503-2.392,3.227-6.101,1.809-9.259C67.238,412.726,64.178,410.662,60.768,410.625z"/>
		</g>
	</g>
</g>
<g>
</g>
<g>
</g>
<g>
</g>
<g>
</g>
<g>
</g>
<g>
</g>
<g>
</g>
<g>
</g>
<g>
</g>
<g>
</g>
<g>
</g>
<g>
</g>
<g>
</g>
<g>
</g>
<g>
</g>
</svg>
