<?xml version="1.0" encoding="iso-8859-1"?>
<!-- Generator: Adobe Illustrator 19.0.0, SVG Export Plug-In . SVG Version: 6.00 Build 0)  -->
<svg version="1.1" id="Capa_1" xmlns="http://www.w3.org/2000/svg" xmlns:xlink="http://www.w3.org/1999/xlink" x="0px" y="0px"
	 viewBox="0 0 512.011 512.011" style="enable-background:new 0 0 512.011 512.011;" xml:space="preserve">
<g>
	<g>
		<path d="M443.739,68.267H424.3c-3.024-5.263-8.624-8.515-14.694-8.533h-85.333c-0.755,0.025-1.508,0.102-2.253,0.23
			c-1.487-2.652-3.655-4.858-6.281-6.391V37.666c0.012-4.529-1.789-8.874-5.001-12.066L290.139,5.001
			c-3.192-3.212-7.537-5.013-12.066-5.001h-44.134c-4.529-0.012-8.874,1.789-12.066,5.001L201.273,25.6
			c-3.212,3.192-5.013,7.538-5.001,12.066v15.906c-2.552,1.486-4.675,3.609-6.161,6.161h-87.706
			c-6.07,0.018-11.67,3.27-14.694,8.533H68.272c-9.426,0-17.067,7.641-17.067,17.067v85.333c0,9.426,7.641,17.067,17.067,17.067
			h19.439c3.024,5.263,8.624,8.515,14.694,8.533h87.706c3.024,5.263,8.624,8.515,14.694,8.533h3.951
			c2.21,29.79,4.582,74.086,4.582,128c0.573,53.768-2.248,107.518-8.448,160.93c-0.52,3.637,1.347,7.198,4.634,8.841
			c14.643,6.424,30.492,9.64,46.481,9.429c15.986,0.224,31.835-2.977,46.481-9.387c3.287-1.642,5.153-5.203,4.634-8.841
			c-6.201-53.426-9.023-107.191-8.448-160.973c0-53.914,2.372-98.21,4.582-128h3.951c6.07-0.018,11.67-3.27,14.694-8.533h87.706
			c6.07-0.018,11.67-3.27,14.694-8.533h19.439c9.426,0,17.067-7.641,17.067-17.067V85.333
			C460.806,75.908,453.165,68.267,443.739,68.267z M85.339,170.667H68.272V85.333h17.067V170.667z M187.739,179.2h-85.333V76.8
			h18.935l6.665,26.65V128c0,4.713,3.82,8.533,8.533,8.533s8.533-3.82,8.533-8.533v-17.067h17.067c4.713,0,8.533-3.82,8.533-8.533
			s-3.82-8.533-8.533-8.533h-18.935L138.937,76.8h48.802V179.2z M213.339,37.666l20.599-20.599h44.134l20.599,20.599V51.2h-85.333
			V37.666z M256.006,494.933c-11.352,0.024-22.63-1.822-33.382-5.461c5.539-52.036,8.137-104.343,7.782-156.672
			c0-53.641-2.33-97.911-4.54-128h60.279c-2.21,30.089-4.54,74.359-4.54,128c-0.357,52.335,2.241,104.648,7.782,156.689
			C278.64,493.144,267.358,494.984,256.006,494.933z M307.206,76.8v110.933h-59.733v-10.402l27.674-6.921
			c3.797-0.951,6.46-4.363,6.46-8.277v-17.067c0-4.713-3.82-8.533-8.533-8.533s-8.533,3.82-8.533,8.533v10.402l-27.674,6.921
			c-3.797,0.951-6.46,4.363-6.46,8.277v17.067h-25.6V68.267h102.4V76.8z M409.605,179.2h-85.333V76.8h47.667l-19.567,19.567
			c-1.6,1.6-2.5,3.77-2.5,6.033v17.067c0,4.713,3.821,8.533,8.533,8.533c4.713,0,8.533-3.82,8.533-8.533v-13.534L396.072,76.8
			h13.534V179.2z M443.739,170.667h-17.067V85.333h17.067V170.667z"/>
	</g>
</g>
<g>
</g>
<g>
</g>
<g>
</g>
<g>
</g>
<g>
</g>
<g>
</g>
<g>
</g>
<g>
</g>
<g>
</g>
<g>
</g>
<g>
</g>
<g>
</g>
<g>
</g>
<g>
</g>
<g>
</g>
</svg>
