<?xml version="1.0" encoding="iso-8859-1"?>
<!-- Generator: Adobe Illustrator 19.0.0, SVG Export Plug-In . SVG Version: 6.00 Build 0)  -->
<svg version="1.1" id="Capa_1" xmlns="http://www.w3.org/2000/svg" xmlns:xlink="http://www.w3.org/1999/xlink" x="0px" y="0px"
	 viewBox="0 0 512.011 512.011" style="enable-background:new 0 0 512.011 512.011;" xml:space="preserve">
<g>
	<g>
		<path d="M511.903,169.37c-16-104.021-150.289-109.824-181.53-109.747c-3.043-5.201-8.609-8.404-14.635-8.422V37.666
			c0.012-4.529-1.788-8.874-5-12.066L290.139,5.001c-3.192-3.212-7.538-5.013-12.066-5.001h-44.134
			c-4.529-0.012-8.874,1.789-12.066,5.001L201.273,25.6c-3.212,3.192-5.013,7.538-5.001,12.066V51.2
			c-6.025,0.018-11.592,3.222-14.635,8.422C150.397,59.537,16.091,65.365,0.108,169.37c-0.378,2.46,0.336,4.963,1.957,6.852
			c1.62,1.889,3.985,2.977,6.474,2.978c1.047-0.001,2.085-0.192,3.063-0.563c1.058-0.41,104.107-39.467,168.96-18.466
			c2.646,6.343,8.838,10.479,15.71,10.496h9.429c5.266,53.882,7.815,107.995,7.637,162.133c0.573,53.768-2.248,107.518-8.448,160.93
			c-0.52,3.637,1.347,7.198,4.634,8.841c14.643,6.424,30.492,9.64,46.481,9.429c15.986,0.224,31.835-2.977,46.481-9.387
			c3.287-1.642,5.153-5.203,4.634-8.841c-6.201-53.426-9.023-107.191-8.448-160.973c-0.16-54.139,2.403-108.252,7.68-162.133h9.387
			c6.885-0.003,13.093-4.142,15.744-10.496c64.777-20.958,167.868,18.057,168.96,18.466c0.968,0.367,1.994,0.558,3.029,0.563
			c2.489-0.001,4.854-1.089,6.474-2.978S512.281,171.83,511.903,169.37z M179.206,99.627c-23.545-3.716-47.606-2.484-70.647,3.618
			c-2.928,0.851-5.18,3.199-5.908,6.16c-0.728,2.961,0.18,6.086,2.381,8.196c2.201,2.111,5.36,2.887,8.289,2.036
			c21.512-5.639,43.993-6.536,65.886-2.628v24.986c-55.168-14.481-127.932,5.427-158.899,15.522
			C43.713,82.85,149.134,76.86,179.206,76.681V99.627z M213.339,37.666l20.599-20.599h44.134l20.599,20.599V51.2h-85.333V37.666z
			 M298.63,68.267l-42.624,31.983l-42.624-31.983H298.63z M256.006,494.933c-11.352,0.024-22.63-1.822-33.382-5.461
			c5.539-52.036,8.137-104.343,7.782-156.672c0-79.88-5.248-139.75-7.543-162.133h66.287c-2.295,22.383-7.543,82.253-7.543,162.133
			c-0.357,52.326,2.24,104.631,7.78,156.664C278.639,493.127,267.359,494.975,256.006,494.933z M315.756,153.6h-17.084h-102.4
			V76.757l45.525,34.133l-13.653,10.24c-3.77,2.828-4.534,8.176-1.707,11.947s8.176,4.534,11.947,1.707l17.621-13.193l17.647,13.235
			c3.77,2.828,9.119,2.064,11.947-1.707s2.064-9.119-1.707-11.947l-13.653-10.24L315.756,76.8V153.6z M332.806,141.995v-24.986
			c21.894-3.899,44.372-3.003,65.886,2.628c4.527,1.315,9.262-1.289,10.577-5.815c1.315-4.527-1.289-9.262-5.815-10.577
			c-23.041-6.108-47.103-7.34-70.648-3.618V76.689c30.071,0.179,135.501,6.161,158.899,80.828
			C460.729,147.413,387.965,127.514,332.806,141.995z"/>
	</g>
</g>
<g>
</g>
<g>
</g>
<g>
</g>
<g>
</g>
<g>
</g>
<g>
</g>
<g>
</g>
<g>
</g>
<g>
</g>
<g>
</g>
<g>
</g>
<g>
</g>
<g>
</g>
<g>
</g>
<g>
</g>
</svg>
