<svg xmlns="http://www.w3.org/2000/svg" viewBox="0 0 512.1 512.1" class="undefined">
        <path d="M100.5 88.4c-3.3-3.2-8.7-3.2-12 0.1 -3.3 3.3-3.3 8.6-0.1 12l153.4 153.4c2.1 2.2 5.3 3.1 8.3 2.3s5.3-3.1 6.1-6.1 -0.1-6.2-2.3-8.3L100.5 88.4z" class="undefined"/>
        <path d="M57.6 45.5c-3.3-3.2-8.7-3.2-12 0.1 -3.3 3.3-3.3 8.6-0.1 12L63.9 76c3.3 3.3 8.7 3.3 12.1 0s3.3-8.7 0-12.1L57.6 45.5z" class="undefined"/>
        <path d="M469.4 425.6l-75-91.3 19.1-19.1c10.1-10.1 10.1-26.5 0-36.7s-26.5-10.1-36.7 0l-17.7 17.7 -24.4-31 161.8-127.4c1.8-1.4 3-3.6 3.2-5.9L512.1 9.4c0-0.3 0-0.6-0.1-0.9 0-0.3 0.1-0.6 0.1-0.9 -0.1-0.3-0.1-0.5-0.2-0.8 -0.1-0.6-0.3-1.1-0.5-1.6 -0.2-0.5-0.5-1-0.8-1.4 -0.3-0.4-0.7-0.9-1-1.2 -0.4-0.4-0.8-0.7-1.2-1 -0.5-0.3-0.9-0.6-1.4-0.8 -0.5-0.2-1-0.4-1.6-0.5 -0.3-0.1-0.6-0.2-0.9-0.3s-0.6 0.1-0.9 0.1c-0.3 0-0.6-0.1-0.9-0.1L380 12.3c-2.3 0.2-4.4 1.4-5.9 3.2l-118 150L138 15.5c-1.4-1.8-3.6-3-5.9-3.2L9.4 0.1c-0.3 0-0.6 0.1-0.9 0.1 -0.3 0-0.6-0.1-0.9-0.1S7.2 0.3 6.9 0.3C6.4 0.4 5.9 0.6 5.4 0.8 4.8 1 4.3 1.3 3.8 1.6 3.4 1.9 3.1 2.2 2.7 2.6 2.3 3 1.9 3.4 1.6 3.9 1.3 4.3 1.1 4.8 0.9 5.2c-0.2 0.5-0.4 1.1-0.5 1.7C0.3 7.2 0.2 7.4 0.1 7.7c0 0.3 0 0.6 0.1 0.9C0.1 8.8 0.1 9.1 0.1 9.4l12.3 122.7c0.2 2.3 1.4 4.4 3.2 5.9l161.8 127.4 -24.5 31 -17.7-17.7c-10.2-9.8-26.4-9.8-36.6 0 -4.9 4.9-7.6 11.4-7.6 18.3 0 6.9 2.7 13.5 7.6 18.3l19.1 19.1 -75 91.3C19 425.9-0.1 445.3 0 469s19.3 43 43.1 43.1c23.7 0.1 43.1-19 43.4-42.7l91.3-75 19.1 19.1c10.1 9.9 26.4 9.9 36.4-0.2 10-10 10.1-26.3 0.2-36.4l-17.7-17.7 40.4-31.8 40.4 31.8 -17.7 17.7c-7.4 7.4-9.6 18.5-5.6 28.2s13.4 16 23.8 16.1h0.1c6.9 0 13.5-2.7 18.4-7.6l19.1-19.1 91.2 75c0.3 23.8 19.7 42.9 43.4 42.8 23.8-0.1 43-19.3 43.1-43.1C512.2 445.3 493.1 425.9 469.4 425.6zM385.3 29l108.7-10.9 -10.9 108.7L324.2 251.9l-11.5-14.6c-0.2-0.3-0.5-0.5-0.7-0.8l-10.7-13.7 122.4-122.4c3.2-3.3 3.2-8.7-0.1-12 -3.3-3.3-8.6-3.3-12-0.1L290.6 209.4l-23.7-30.1L385.3 29zM61.8 487.3c-10.2 10.2-26.8 10.2-37 0 -10.2-10.2-10.2-26.8 0-37 10.2-10.2 26.8-10.2 37 0C72 460.5 72 477 61.8 487.3zM82.4 450.6c-2.1-4.6-5-8.8-8.5-12.4 -3.6-3.6-7.8-6.5-12.4-8.5l68.4-83.1 35.8 35.8L82.4 450.6zM221.4 388.9c3.4 3.5 3.4 9 0 12.5v-0.1c-1.7 1.7-3.9 2.6-6.2 2.6s-4.6-0.9-6.2-2.6l-24.5-24.5 -49.1-49.1 -24.5-24.5c-2.2-2.2-3.1-5.5-2.3-8.5 0.8-3 3.2-5.4 6.2-6.2s6.3 0.1 8.5 2.3L221.4 388.9zM203.6 346.9l-19.2-19.2L165.2 308.5l25.7-32.6 45.7 36c0.3 0.3 0.6 0.5 0.9 0.7l4.8 3.8L203.6 346.9zM248.7 299.8c-0.2-0.2-0.5-0.5-0.7-0.7L29 126.8 18.1 18.1l108.7 10.9L299.2 247.9c0.2 0.3 0.4 0.5 0.6 0.7v0.1l16 20.3c0.1 0.1 0.1 0.2 0.1 0.2 0.1 0.1 0.1 0.1 0.2 0.1l30.8 39.1 -19.2 19.2 -19.2 19.2L248.7 299.8zM327.8 376.8l0 0.1 -24.5 24.4c-1.7 1.7-3.9 2.6-6.3 2.6 -3.5-0.1-6.7-2.2-8.1-5.5 -1.3-3.3-0.6-7.1 1.9-9.6l24.5-24.4 24.6-24.6 24.6-24.6 24.4-24.4c1.7-1.6 4-2.6 6.3-2.6 3.6 0 6.8 2.1 8.2 5.4 1.4 3.3 0.6 7.1-1.9 9.6l-24.4 24.4 -0.1 0.1L327.8 376.8zM429.7 450.6l-83.2-68.4 35.8-35.8 68.4 83.2C441.3 433.8 433.8 441.3 429.7 450.6zM487.3 487.3c-10.2 10.2-26.8 10.2-37 0 -10.2-10.2-10.2-26.8 0-37 10.2-10.2 26.8-10.2 37 0C497.5 460.5 497.5 477 487.3 487.3z" class="undefined"/>
        <path d="M442.1 78.4h0c2.3 0 4.4-0.9 6-2.5L466.6 57.5c2.2-2.1 3.1-5.3 2.3-8.3 -0.8-3-3.1-5.3-6.1-6.1s-6.2 0.1-8.3 2.3L436.1 63.9c-2.4 2.4-3.2 6.1-1.8 9.3C435.6 76.4 438.7 78.4 442.1 78.4z" class="undefined"/>
</svg>