<?xml version="1.0" encoding="iso-8859-1"?>
<!-- Generator: Adobe Illustrator 19.0.0, SVG Export Plug-In . SVG Version: 6.00 Build 0)  -->
<svg version="1.1" id="Capa_1" xmlns="http://www.w3.org/2000/svg" xmlns:xlink="http://www.w3.org/1999/xlink" x="0px" y="0px"
	 viewBox="0 0 512.143 512.143" style="enable-background:new 0 0 512.143 512.143;" xml:space="preserve">
<g transform="translate(-1 -1)">
	<g>
		<g>
			<path d="M86.367,188.848c0-10.354-6.237-19.689-15.803-23.651s-20.577-1.772-27.899,5.549s-9.512,18.333-5.549,27.899
				c3.962,9.566,13.297,15.803,23.651,15.803C74.905,214.448,86.367,202.986,86.367,188.848z M52.233,188.848
				c0-4.713,3.82-8.533,8.533-8.533s8.533,3.82,8.533,8.533s-3.82,8.533-8.533,8.533S52.233,193.56,52.233,188.848z"/>
			<path d="M453.3,214.448c10.354,0,19.689-6.237,23.651-15.803c3.962-9.566,1.772-20.577-5.549-27.899
				c-7.322-7.322-18.333-9.512-27.899-5.549c-9.566,3.962-15.803,13.297-15.803,23.651C427.7,202.986,439.162,214.448,453.3,214.448
				z M453.3,180.314c4.713,0,8.533,3.82,8.533,8.533s-3.821,8.533-8.533,8.533c-4.713,0-8.533-3.82-8.533-8.533
				S448.587,180.314,453.3,180.314z"/>
			<path d="M257.033,120.581c23.564,0,42.667-19.103,42.667-42.667s-19.103-42.667-42.667-42.667s-42.667,19.102-42.667,42.667
				C214.395,101.467,233.481,120.553,257.033,120.581z M257.033,52.314c14.138,0,25.6,11.461,25.6,25.6s-11.462,25.6-25.6,25.6
				s-25.6-11.462-25.6-25.6S242.895,52.314,257.033,52.314z"/>
			<path d="M487.433,446.059v-1.212c-0.053-18.358-14.617-33.385-32.964-34.014l21.726-166.835
				c23.807-9.838,38.635-33.82,36.795-59.514c-1.84-25.694-19.933-47.319-44.899-53.665c-24.966-6.345-51.189,4.017-65.074,25.714
				c-13.885,21.697-12.308,49.849,3.913,69.861l-23.603,25.702c-6.111,6.616-15.25,9.534-24.065,7.684
				c-8.815-1.85-16.008-8.197-18.943-16.712L304.12,138.501c25.931-20.125,36.206-54.505,25.569-85.558
				C319.053,21.89,289.858,1.029,257.033,1.029c-32.824,0-62.02,20.861-72.656,51.914c-10.636,31.053-0.362,65.433,25.569,85.558
				L173.791,243.06c-2.934,8.513-10.125,14.858-18.937,16.71c-8.812,1.852-17.949-1.062-24.062-7.674l-23.654-25.702
				c16.207-19.993,17.786-48.118,3.919-69.799c-13.867-21.681-40.062-32.043-65.008-25.715
				c-24.946,6.328-43.035,27.923-44.891,53.592c-1.856,25.669,12.939,49.642,36.715,59.492l21.726,166.869
				c-18.347,0.629-32.911,15.656-32.964,34.014v1.212c-16.625,4.279-27.469,20.261-25.302,37.29
				c2.167,17.03,16.668,29.786,33.835,29.765H478.9c17.167,0.021,31.668-12.735,33.835-29.765
				C514.902,466.32,504.059,450.338,487.433,446.059z M453.3,146.181c23.564,0,42.667,19.103,42.667,42.667
				s-19.102,42.667-42.667,42.667c-23.564,0-42.667-19.103-42.667-42.667C410.662,165.295,429.748,146.209,453.3,146.181z
				 M197.3,77.914c0-32.99,26.744-59.733,59.733-59.733s59.733,26.744,59.733,59.733s-26.744,59.733-59.733,59.733
				C224.059,137.61,197.338,110.888,197.3,77.914z M18.1,188.848c0-23.564,19.103-42.667,42.667-42.667s42.667,19.103,42.667,42.667
				s-19.103,42.667-42.667,42.667C37.214,231.486,18.128,212.4,18.1,188.848z M55.647,248.325c1.707,0.145,3.413,0.256,5.12,0.256
				c12.091,0.008,23.896-3.678,33.835-10.564l23.637,25.651c8.005,8.752,19.32,13.737,31.181,13.739
				c2.988-0.003,5.968-0.315,8.892-0.93c14.717-3.022,26.731-13.614,31.573-27.836l34.978-101.086
				c20.385,9.546,43.956,9.546,64.341,0l34.944,101.086c4.842,14.222,16.857,24.814,31.573,27.836
				c2.924,0.616,5.904,0.928,8.892,0.93c11.861,0.001,23.177-4.985,31.181-13.739l23.637-25.651
				c9.948,6.893,21.766,10.579,33.869,10.564c1.707,0,3.413-0.111,5.12-0.256l-21.146,162.389H76.792L55.647,248.325z
				 M60.767,427.781H453.3c9.426,0,17.067,7.641,17.067,17.067H43.7C43.7,435.422,51.341,427.781,60.767,427.781z M478.9,496.048
				H35.167c-9.426,0-17.067-7.641-17.067-17.067s7.641-17.067,17.067-17.067H478.9c9.426,0,17.067,7.641,17.067,17.067
				S488.326,496.048,478.9,496.048z"/>
			<path d="M209.46,335.621l-8.303,48.043c-0.553,3.198,0.756,6.433,3.377,8.347c2.622,1.914,6.102,2.174,8.979,0.673l43.52-22.724
				l43.52,22.724c1.221,0.632,2.576,0.962,3.951,0.964c2.516-0.001,4.904-1.113,6.524-3.038c1.621-1.925,2.309-4.467,1.881-6.946
				l-8.303-48.043l35.157-34.031c2.337-2.263,3.184-5.659,2.184-8.754s-3.674-5.353-6.894-5.821l-48.64-7.023l-21.7-43.742
				c-1.602-2.698-4.508-4.353-7.646-4.353c-3.138,0-6.044,1.654-7.646,4.353l-21.734,43.742l-48.64,7.023
				c-3.22,0.467-5.893,2.725-6.894,5.821s-0.154,6.491,2.184,8.754L209.46,335.621z M234.522,296.248
				c2.773-0.403,5.171-2.141,6.417-4.651l16.094-32.375l16.094,32.375c1.246,2.51,3.644,4.248,6.417,4.651l35.84,5.171
				l-25.882,25.071c-2.032,1.965-2.959,4.809-2.475,7.595l6.127,35.482l-32.171-16.802c-2.477-1.286-5.425-1.286-7.902,0
				l-32.171,16.802l6.127-35.482c0.484-2.785-0.443-5.629-2.475-7.595l-25.899-25.071L234.522,296.248z"/>
			<path d="M94.9,359.514h17.067c4.713,0,8.533-3.82,8.533-8.533s-3.82-8.533-8.533-8.533H94.9c-4.713,0-8.533,3.82-8.533,8.533
				S90.187,359.514,94.9,359.514z"/>
			<path d="M146.1,359.514h34.133c4.713,0,8.533-3.82,8.533-8.533s-3.82-8.533-8.533-8.533H146.1c-4.713,0-8.533,3.82-8.533,8.533
				S141.387,359.514,146.1,359.514z"/>
			<path d="M402.1,359.514h17.067c4.713,0,8.533-3.82,8.533-8.533s-3.82-8.533-8.533-8.533H402.1c-4.713,0-8.533,3.82-8.533,8.533
				S397.387,359.514,402.1,359.514z"/>
			<path d="M325.3,350.981c0,4.713,3.821,8.533,8.533,8.533h34.133c4.713,0,8.533-3.82,8.533-8.533s-3.82-8.533-8.533-8.533h-34.133
				C329.121,342.448,325.3,346.268,325.3,350.981z"/>
		</g>
	</g>
</g>
<g>
</g>
<g>
</g>
<g>
</g>
<g>
</g>
<g>
</g>
<g>
</g>
<g>
</g>
<g>
</g>
<g>
</g>
<g>
</g>
<g>
</g>
<g>
</g>
<g>
</g>
<g>
</g>
<g>
</g>
</svg>
