<?xml version="1.0" encoding="iso-8859-1"?>
<!-- Generator: Adobe Illustrator 19.0.0, SVG Export Plug-In . SVG Version: 6.00 Build 0)  -->
<svg version="1.1" id="Capa_1" xmlns="http://www.w3.org/2000/svg" xmlns:xlink="http://www.w3.org/1999/xlink" x="0px" y="0px"
	 viewBox="0 0 512.125 512.125" style="enable-background:new 0 0 512.125 512.125;" xml:space="preserve">
<g>
	<g>
		<g>
			<path d="M432.446,54.477c-7.094-3.01-15.299-1.507-20.864,3.823c-14.453,12.322-34.056,16.716-52.386,11.742
				c-19.396-4.719-33.954-18.953-49.621-35.669c-3.524-3.78-7.04-7.552-10.658-11.349C288.011,11.639,274.392,0,256.062,0
				S224.114,11.639,213.2,23.04c-3.61,3.78-7.125,7.552-10.641,11.315c-15.676,16.734-30.234,30.967-49.596,35.686
				c-18.328,4.987-37.937,0.603-52.395-11.716c-5.565-5.35-13.784-6.864-20.89-3.849c-6.942,2.924-11.427,9.756-11.349,17.289
				v263.936c-0.037,27.601,11.902,53.861,32.725,71.979l93.867,81.417c34.979,30.705,87.304,30.705,122.283,0l93.867-81.408
				c20.823-18.121,32.762-44.383,32.725-71.987V71.765C443.874,64.233,439.389,57.401,432.446,54.477z M426.729,335.701
				c0.037,22.657-9.757,44.216-26.846,59.093l-93.867,81.399c-28.577,25.089-71.331,25.089-99.908,0l-93.867-81.408
				c-17.086-14.875-26.88-36.431-26.846-59.085V71.765c-0.056-0.699,0.359-1.35,1.016-1.596c0.268-0.121,0.559-0.182,0.853-0.179
				c0.616,0.02,1.197,0.288,1.613,0.742c18.671,16.258,44.183,22.212,68.122,15.898c23.962-5.837,40.465-21.837,58.027-40.619
				c3.482-3.729,6.963-7.458,10.513-11.179c8.405-8.789,18.577-17.766,30.524-17.766c11.947,0,22.118,8.977,30.515,17.758
				c3.558,3.729,7.04,7.458,10.539,11.204c17.579,18.773,34.082,34.765,58.078,40.61c23.945,6.319,49.466,0.348,68.122-15.94
				c0.599-0.685,1.575-0.9,2.406-0.529c0.653,0.248,1.064,0.899,1.007,1.596V335.701z"/>
			<path d="M406.335,104.348c-2.099-1.616-4.829-2.166-7.39-1.487c-15.663,4.008-32.067,4.128-47.787,0.35
				c-30.865-7.509-52.326-30.43-67.046-46.14c-3.26-3.482-6.502-6.972-10.155-10.795c-4.674-4.871-11.144-7.608-17.894-7.569
				c-6.886,0.005-13.462,2.866-18.159,7.902c-3.507,3.678-6.929,7.356-10.419,11.093c-14.182,15.138-35.61,38.007-66.56,45.551
				c-15.697,3.759-32.075,3.628-47.71-0.384c-2.564-0.69-5.303-0.148-7.411,1.468s-3.342,4.12-3.341,6.775v224.589
				c-0.034,17.706,7.612,34.556,20.958,46.191l93.867,81.399c22.211,19.406,55.348,19.406,77.559,0l93.867-81.391
				c13.341-11.642,20.982-28.493,20.949-46.199V111.113C409.663,108.464,408.434,105.964,406.335,104.348z M153.662,385.536
				l-19.055-16.529c-9.612-8.395-15.112-20.544-15.078-33.306l0-214.076c11.301,1.776,22.802,1.879,34.133,0.307V385.536z
				 M213.396,437.342l-42.667-37.009V118.025c15.597-4.9,30.089-12.793,42.667-23.236V437.342z M281.697,451.831
				c-15.198,11.293-36.002,11.293-51.2,0V79.215c3.379-3.456,6.588-6.827,9.438-9.865c3.456-3.703,6.827-7.339,10.564-11.221
				c1.451-1.517,3.464-2.369,5.564-2.355c2.243,0.02,4.374,0.983,5.871,2.654c3.234,3.413,6.451,6.827,10.24,10.863
				c2.859,3.055,6.093,6.443,9.523,9.924V451.831z M341.396,400.341l-42.667,37V94.788c12.572,10.452,27.066,18.345,42.667,23.236
				V400.341z M392.596,335.701c0.021,12.755-5.485,24.894-15.095,33.28l-19.038,16.555V121.924
				c11.331,1.579,22.832,1.479,34.133-0.299L392.596,335.701z"/>
		</g>
	</g>
</g>
<g>
</g>
<g>
</g>
<g>
</g>
<g>
</g>
<g>
</g>
<g>
</g>
<g>
</g>
<g>
</g>
<g>
</g>
<g>
</g>
<g>
</g>
<g>
</g>
<g>
</g>
<g>
</g>
<g>
</g>
</svg>
