<?xml version="1.0" encoding="iso-8859-1"?>
<!-- Generator: Adobe Illustrator 19.0.0, SVG Export Plug-In . SVG Version: 6.00 Build 0)  -->
<svg version="1.1" id="Capa_1" xmlns="http://www.w3.org/2000/svg" xmlns:xlink="http://www.w3.org/1999/xlink" x="0px" y="0px"
	 viewBox="0 0 495.909 495.909" style="enable-background:new 0 0 495.909 495.909;" xml:space="preserve">
<g transform="translate(0 -1)">
	<g>
		<g>
			<path d="M447.544,50.159l-0.776-0.785c-64.543-64.393-169.029-64.393-233.571,0l-82.415,82.416l-82.416,82.415
				c-64.487,64.497-64.487,169.057,0,233.555l0.768,0.768c64.539,64.402,169.032,64.402,233.571,0l164.839-164.814
				C512.031,219.216,512.031,114.656,447.544,50.159z M435.908,272.036h-0.041l-76.585,76.585l-41.034-41.026
				c-3.262-2.957-8.27-2.836-11.384,0.276s-3.239,8.12-0.284,11.384l41.034,41.043l-76.585,76.577
				c-58.084,57.953-152.117,57.953-210.201,0l-0.784-0.784c-27.877-27.876-43.538-65.685-43.538-105.109
				s15.661-77.232,43.538-105.109l76.585-76.585l29.308,29.324c3.24,3.13,8.391,3.085,11.576-0.101
				c3.185-3.185,3.23-8.336,0.101-11.576l-29.308-29.324l76.577-76.577c58.085-57.948,152.115-57.948,210.201,0l0.826,0.785
				c27.877,27.876,43.538,65.685,43.538,105.109S463.785,244.16,435.908,272.036z"/>
			<path d="M288.947,125.918c-9.709-9.673-25.412-9.673-35.122,0l-70.293,70.326l-46.873,46.881
				c-9.434,9.74-9.311,25.247,0.278,34.836s25.096,9.712,34.836,0.278l41.034-41.034l41.043,41.034
				c22.654,22.614,59.341,22.614,81.994,0l11.726-11.718c22.614-22.654,22.614-59.341,0-81.994L288.947,125.918z M335.861,254.843
				v-0.008l-11.718,11.718c-16.205,16.157-42.427,16.157-58.632,0L218.63,219.68c-3.225-3.224-8.452-3.224-11.677,0l-46.873,46.873
				c-2.092,2.145-5.175,2.999-8.072,2.236s-5.16-3.026-5.923-5.923s0.091-5.981,2.236-8.072l46.873-46.881l70.317-70.309
				c3.252-3.243,8.516-3.243,11.768,0l58.591,58.632C352.017,212.436,352.013,238.647,335.861,254.843z"/>
			<path d="M277.221,161.089c-3.276-3.098-8.401-3.098-11.677,0l-35.155,35.155c-3.224,3.225-3.224,8.452,0,11.677l46.914,46.914
				c4.646,4.647,10.948,7.258,17.519,7.258s12.873-2.611,17.519-7.258l11.801-11.801c9.671-9.674,9.671-25.356,0-35.031
				L277.221,161.089z M312.466,231.365l-11.801,11.817c-3.266,3.123-8.411,3.123-11.677,0l-41.043-41.1l23.478-23.478l41.084,41.084
				C315.72,222.925,315.702,228.152,312.466,231.365z"/>
			<path d="M378.267,43.833c-12.526-6.076-26.416-8.791-40.308-7.878c-32.941,1.569-57.955,19.398-56.981,40.597
				c0.966,20.191,25.171,35.097,55.94,35.097c1.528,0,3.064,0,4.616-0.116c13.929-0.401,27.512-4.429,39.407-11.685
				c10.676-5.719,17.396-16.793,17.54-28.903C397.185,58.9,389.44,48.513,378.267,43.833z M371.933,86.007
				c-9.456,5.623-20.194,8.73-31.191,9.026c-24.849,1.263-42.777-9.2-43.264-19.274s16.343-22.123,41.241-23.337
				c10.971-0.779,21.958,1.292,31.893,6.012c6.986,3.691,11.115,8.522,11.363,13.295C381.304,77.898,377.512,83.29,371.933,86.007z"
				/>
		</g>
	</g>
</g>
<g>
</g>
<g>
</g>
<g>
</g>
<g>
</g>
<g>
</g>
<g>
</g>
<g>
</g>
<g>
</g>
<g>
</g>
<g>
</g>
<g>
</g>
<g>
</g>
<g>
</g>
<g>
</g>
<g>
</g>
</svg>
