<?xml version="1.0" encoding="iso-8859-1"?>
<!-- Generator: Adobe Illustrator 19.0.0, SVG Export Plug-In . SVG Version: 6.00 Build 0)  -->
<svg version="1.1" id="Capa_1" xmlns="http://www.w3.org/2000/svg" xmlns:xlink="http://www.w3.org/1999/xlink" x="0px" y="0px"
	 viewBox="0 0 512 512" style="enable-background:new 0 0 512 512;" xml:space="preserve">
<g>
	<g>
		<g>
			<path d="M42.667,477.867h426.667c4.713,0,8.533-3.82,8.533-8.533v-204.8c0-4.713-3.82-8.533-8.533-8.533H204.8H42.667
				c-4.713,0-8.533,3.82-8.533,8.533v204.8C34.133,474.046,37.954,477.867,42.667,477.867z M315.733,273.067H460.8v51.2H315.733
				V273.067z M312.67,390.554c1.942-1.622,3.065-4.023,3.063-6.554v-42.667H460.8v51.2H310.289L312.67,390.554z M213.333,273.067
				h85.333v106.94L256,415.573l-42.667-35.55V273.067z M51.2,273.067h145.067v51.2H51.2V273.067z M51.2,341.333h145.067V384
				c-0.001,2.531,1.121,4.931,3.063,6.554l2.381,1.98H51.2V341.333z M51.2,409.6h170.991l28.339,23.62
				c3.167,2.645,7.773,2.645,10.94,0l28.339-23.62H460.8v51.2H51.2V409.6z"/>
			<path d="M264.533,384v-10.103c11.755-4.156,18.806-16.176,16.698-28.465c-2.108-12.289-12.763-21.271-25.231-21.271
				c-12.468,0-23.123,8.982-25.231,21.271s4.943,24.309,16.698,28.465V384c0,4.713,3.82,8.533,8.533,8.533
				C260.713,392.533,264.533,388.713,264.533,384z M247.467,349.867c0-4.713,3.82-8.533,8.533-8.533c4.713,0,8.533,3.82,8.533,8.533
				s-3.82,8.533-8.533,8.533C251.287,358.4,247.467,354.58,247.467,349.867z"/>
			<path d="M511.829,229.547c0.018-0.284,0.018-0.569,0-0.853L488.32,111.155c-1.649-8.212-5.282-15.897-10.581-22.383L412.8,9.412
				C407.947,3.45,400.665-0.008,392.977,0h-273.92c-7.684-0.014-14.965,3.433-19.823,9.387L34.27,88.747
				c-5.302,6.486-8.938,14.17-10.59,22.383L0.171,228.693c-0.018,0.284-0.018,0.569,0,0.853C0.096,229.827,0.039,230.112,0,230.4
				v256C0,500.539,11.462,512,25.6,512h460.8c14.138,0,25.6-11.462,25.6-25.6v-256C511.961,230.112,511.904,229.827,511.829,229.547
				z M392.977,17.067c2.56,0,4.984,1.15,6.605,3.132l64.956,79.36c3.534,4.321,5.954,9.443,7.049,14.916l21.47,107.392h-33.894
				L435.012,109.15c-0.261-1.208-0.779-2.346-1.519-3.337l-66.56-88.747H392.977z M315.733,17.067H345.6L390.4,76.8h-74.667V17.067z
				 M315.733,93.867H403.2l15.514,20.685l6.545,30.515H315.733V93.867z M315.733,162.133h113.178l12.8,59.733H315.733V162.133z
				 M213.333,17.067h85.333v204.8h-85.333V17.067z M196.267,17.067V76.8H121.6l44.8-59.733H196.267z M86.741,145.067l6.545-30.515
				L108.8,93.867h87.467v51.2H86.741z M196.267,162.133v59.733H70.289l12.8-59.733H196.267z M40.414,114.492
				c1.099-5.474,3.522-10.595,7.057-14.916l64.947-79.36c1.617-1.988,4.042-3.144,6.605-3.149h26.044l-66.56,88.747
				c-0.74,0.99-1.258,2.128-1.519,3.337L52.838,221.867H18.944L40.414,114.492z M494.933,486.4c0,4.713-3.82,8.533-8.533,8.533H25.6
				c-4.713,0-8.533-3.82-8.533-8.533V238.933h477.867V486.4z"/>
			<path d="M256,25.6c-14.139,0-25.6,11.462-25.6,25.6s11.461,25.6,25.6,25.6c14.138,0,25.6-11.461,25.6-25.6S270.139,25.6,256,25.6
				z M256,59.733c-4.713,0-8.533-3.82-8.533-8.533s3.82-8.533,8.533-8.533c4.713,0,8.533,3.82,8.533,8.533
				S260.713,59.733,256,59.733z"/>
			<path d="M256,93.867c-14.139,0-25.6,11.461-25.6,25.6s11.461,25.6,25.6,25.6c14.138,0,25.6-11.461,25.6-25.6
				S270.139,93.867,256,93.867z M256,128c-4.713,0-8.533-3.82-8.533-8.533s3.82-8.533,8.533-8.533c4.713,0,8.533,3.82,8.533,8.533
				S260.713,128,256,128z"/>
			<path d="M246.203,164.082c-9.566,3.962-15.803,13.297-15.803,23.651c0,14.138,11.461,25.6,25.6,25.6
				c10.354,0,19.689-6.237,23.651-15.803c3.962-9.566,1.772-20.577-5.549-27.899S255.769,160.12,246.203,164.082z M256,196.267
				c-4.713,0-8.533-3.82-8.533-8.533s3.82-8.533,8.533-8.533c4.713,0,8.533,3.82,8.533,8.533S260.713,196.267,256,196.267z"/>
		</g>
	</g>
</g>
<g>
</g>
<g>
</g>
<g>
</g>
<g>
</g>
<g>
</g>
<g>
</g>
<g>
</g>
<g>
</g>
<g>
</g>
<g>
</g>
<g>
</g>
<g>
</g>
<g>
</g>
<g>
</g>
<g>
</g>
</svg>
