<?xml version="1.0" encoding="iso-8859-1"?>
<!-- Generator: Adobe Illustrator 19.0.0, SVG Export Plug-In . SVG Version: 6.00 Build 0)  -->
<svg version="1.1" id="Capa_1" xmlns="http://www.w3.org/2000/svg" xmlns:xlink="http://www.w3.org/1999/xlink" x="0px" y="0px"
	 viewBox="0 0 512.024 512.024" style="enable-background:new 0 0 512.024 512.024;" xml:space="preserve">
<g transform="translate(0 -1)">
	<g>
		<g>
			<path d="M368.754,341.27l-76.314-64.632c0.239-0.444,0.418-0.913,0.64-1.365c0.711-1.324,1.349-2.685,1.911-4.079
				c0.273-0.742,0.393-1.536,0.623-2.295c1.338-3.838,1.988-7.883,1.92-11.947c-0.02-11.081-4.476-21.693-12.373-29.466
				l20.25-66.458c0.832-2.735,0.239-5.704-1.579-7.91l-41.242-50.074c-1.676-1.876-4.072-2.949-6.588-2.949
				c-2.516,0-4.912,1.073-6.588,2.949l-41.199,50.133c-1.818,2.206-2.411,5.176-1.579,7.91l20.25,66.475
				c-9.392,9.106-13.837,22.17-11.947,35.115l-58.556,35.55c-2.029,1.23-3.454,3.249-3.934,5.572l-12.041,58.735
				c-0.512,2.509,0.13,5.116,1.749,7.101c1.619,1.985,4.044,3.137,6.605,3.139v0.009c0.574-0.001,1.145-0.061,1.707-0.179
				l58.735-12.041c2.323-0.48,4.342-1.905,5.572-3.934l35.55-58.513c4.888,0.719,9.867,0.528,14.686-0.563
				c6.004-1.336,11.632-4.001,16.469-7.799l76.245,64.538c3.606,2.915,8.881,2.417,11.877-1.122
				C372.603,349.631,372.225,344.346,368.754,341.27z M202.141,344.59l-42.419,8.704l8.704-42.411l52.403-31.846
				c0.111,0.188,0.256,0.358,0.375,0.546c0.683,1.05,1.365,2.099,2.133,3.081c0.538,0.683,1.152,1.306,1.707,1.954
				c0.555,0.649,1.007,1.212,1.57,1.766c0.785,0.785,1.655,1.502,2.5,2.227c0.41,0.35,0.785,0.734,1.212,1.067
				c0.802,0.631,1.707,1.186,2.56,1.758c0.367,0.247,0.717,0.521,1.092,0.76L202.141,344.59z M280.085,261.279
				c-1.243,6.908-5.385,12.953-11.378,16.606c-5.993,3.654-13.263,4.567-19.974,2.508v-0.017
				c-7.686-2.402-13.704-8.423-16.102-16.111c-0.733-2.348-1.101-4.794-1.092-7.253c0.009-7.851,3.794-15.218,10.172-19.797
				c8.551-6.251,20.172-6.22,28.689,0.077c6.325,4.579,10.069,11.913,10.069,19.721C280.47,258.443,280.341,259.871,280.085,261.279
				z M270.186,218.16c-9.181-3.221-19.184-3.221-28.365,0l-17.57-57.66l31.753-38.545l31.753,38.537L270.186,218.16z"/>
			<path d="M483.758,217.852c-16.825-96.33-92.256-171.762-188.587-188.587C289.572,12.39,273.792,1,256.012,1
				s-33.56,11.39-39.16,28.266c-96.327,16.832-171.755,92.26-188.587,188.587C11.39,223.452,0,239.232,0,257.012
				c0,17.78,11.39,33.56,28.266,39.159c16.832,96.327,92.26,171.755,188.587,188.587c5.599,16.875,21.379,28.266,39.16,28.266
				s33.56-11.39,39.159-28.266c96.33-16.825,171.762-92.256,188.587-188.587c16.875-5.599,28.266-21.379,28.266-39.159
				C512.024,239.232,500.634,223.452,483.758,217.852z M297.126,47.032c85.291,16.935,151.965,83.61,168.9,168.9
				c-8.371,0.89-16.267,4.327-22.622,9.847c-3.249-19.624-9.585-38.61-18.773-56.252l7.134-4.113
				c4.047-2.372,5.42-7.566,3.074-11.628c-2.345-4.062-7.53-5.47-11.608-3.151l-7.159,4.13
				c-14.877-23.193-34.586-42.902-57.779-57.779l4.13-7.159c2.318-4.078,0.911-9.262-3.151-11.608
				c-4.062-2.345-9.256-0.972-11.628,3.074l-4.113,7.134c-17.642-9.188-36.628-15.524-56.252-18.773
				C292.798,63.299,296.235,55.403,297.126,47.032z M256.003,18.079c13.512,0,24.465,10.953,24.465,24.465
				s-10.953,24.465-24.465,24.465c-13.512,0-24.465-10.953-24.465-24.465C231.553,29.038,242.498,18.093,256.003,18.079z
				 M214.924,46.99c0.89,8.371,4.327,16.267,9.847,22.622c-19.627,3.262-38.612,9.613-56.252,18.816l-4.113-7.134
				c-2.372-4.047-7.566-5.42-11.628-3.074c-4.062,2.345-5.47,7.53-3.151,11.608l4.13,7.159
				c-23.195,14.875-42.904,34.584-57.779,57.779l-7.159-4.13c-4.078-2.318-9.262-0.911-11.608,3.151
				c-2.345,4.062-0.972,9.256,3.074,11.628l7.134,4.113c-9.188,17.642-15.524,36.628-18.773,56.252
				c-6.355-5.52-14.251-8.957-22.622-9.847C62.944,130.625,129.621,63.931,214.924,46.99z M17.07,257.012
				c0.014-13.506,10.959-24.451,24.465-24.465C55.047,232.547,66,243.5,66,257.012c0,13.512-10.953,24.465-24.465,24.465
				S17.07,270.524,17.07,257.012z M214.924,466.992c-85.307-16.92-152.001-83.597-168.943-168.9
				c8.371-0.89,16.267-4.327,22.622-9.847c3.262,19.627,9.613,38.612,18.816,56.252l-7.134,4.113
				c-2.662,1.513-4.309,4.337-4.316,7.399c-0.007,3.062,1.628,5.893,4.283,7.418c2.655,1.525,5.924,1.511,8.566-0.038l7.159-4.13
				c14.875,23.195,34.584,42.904,57.779,57.779l-4.13,7.159c-1.549,2.642-1.563,5.911-0.038,8.566
				c1.525,2.655,4.356,4.29,7.418,4.283c3.062-0.007,5.886-1.654,7.399-4.316l4.113-7.134c17.642,9.188,36.628,15.524,56.252,18.773
				C219.251,450.725,215.814,458.621,214.924,466.992z M256.003,495.945c-9.895,0-18.816-5.961-22.603-15.103
				c-3.787-9.142-1.694-19.665,5.303-26.662c6.997-6.997,17.52-9.09,26.662-5.303c9.142,3.787,15.103,12.708,15.103,22.603
				C280.454,484.986,269.509,495.931,256.003,495.945z M256.003,429.957c-95.515,0-172.945-77.43-172.945-172.945
				c0.108-95.47,77.475-172.837,172.945-172.945c95.515,0,172.945,77.43,172.945,172.945S351.518,429.957,256.003,429.957z
				 M297.083,467.034c-0.89-8.371-4.327-16.267-9.847-22.622c19.624-3.249,38.61-9.585,56.252-18.773l4.113,7.134
				c2.372,4.047,7.566,5.42,11.628,3.074c4.062-2.345,5.47-7.53,3.151-11.608l-4.13-7.159
				c23.193-14.877,42.902-34.586,57.779-57.779l7.159,4.13c4.078,2.318,9.262,0.911,11.608-3.151
				c2.345-4.062,0.972-9.256-3.074-11.628l-7.134-4.113c9.188-17.642,15.524-36.628,18.773-56.252
				c6.355,5.52,14.251,8.957,22.622,9.847C449.048,383.425,382.374,450.099,297.083,467.034z M479.832,279.616
				c-9.143,3.786-19.667,1.692-26.663-5.307s-9.087-17.523-5.298-26.665c3.789-9.142,12.713-15.1,22.609-15.097
				c13.503,0.019,24.442,10.963,24.457,24.465C494.937,266.908,488.975,275.829,479.832,279.616z"/>
		</g>
	</g>
</g>
<g>
</g>
<g>
</g>
<g>
</g>
<g>
</g>
<g>
</g>
<g>
</g>
<g>
</g>
<g>
</g>
<g>
</g>
<g>
</g>
<g>
</g>
<g>
</g>
<g>
</g>
<g>
</g>
<g>
</g>
</svg>
