<?xml version="1.0" encoding="iso-8859-1"?>
<!-- Generator: Adobe Illustrator 19.0.0, SVG Export Plug-In . SVG Version: 6.00 Build 0)  -->
<svg version="1.1" id="Capa_1" xmlns="http://www.w3.org/2000/svg" xmlns:xlink="http://www.w3.org/1999/xlink" x="0px" y="0px"
	 viewBox="0 0 512 512" style="enable-background:new 0 0 512 512;" xml:space="preserve">
<g>
	<g>
		<path d="M472.687,118.4l-109.09-88.354c-9.23-7.431-21.112-10.737-32.853-9.139l-96.068,13.295V25.6
			c0.049-6.758-2.642-13.248-7.458-17.988C222.456,2.714,215.906-0.034,209.076,0c-14.138,0-25.6,11.461-25.6,25.6v15.684
			L51.934,59.486C39.326,61.318,29.95,72.09,29.876,84.83v106.837c0.076,12.753,9.47,23.533,22.093,25.352l131.507,18.202v207.906
			c-32.64-43.75-99.686-58.743-100.617-58.94c-3.699-0.795-7.48,0.941-9.288,4.264c-1.808,3.323-1.213,7.44,1.463,10.115
			c0.58,0.572,57.242,57.865,57.242,104.9c0,4.713,3.82,8.533,8.533,8.533h136.533c4.713,0,8.533-3.82,8.533-8.533
			c0-47.036,56.661-104.329,57.242-104.9c2.676-2.674,3.272-6.792,1.463-10.115c-1.809-3.323-5.589-5.059-9.288-4.264
			c-0.93,0.196-67.977,15.189-100.617,58.94V242.347l96.068,13.295c11.744,1.617,23.635-1.694,32.853-9.148l109.09-88.388
			c5.971-4.861,9.438-12.153,9.438-19.853S478.659,123.262,472.687,118.4z M183.476,494.934h-34.611
			c-3.413-31.488-24.661-63.923-41.335-85.035l0.034-0.026c29.406,11.674,71.646,35.686,75.913,78.234V494.934z M200.542,25.6
			c0-4.713,3.82-8.533,8.533-8.533c2.299-0.007,4.499,0.938,6.076,2.611c1.592,1.556,2.48,3.696,2.458,5.922v10.957l-17.067,2.364
			V25.6z M217.609,486.511c-0.256,2.739-0.401,5.547-0.401,8.422h-16.265c0-2.876-0.145-5.683-0.401-8.422V237.577l17.067,2.364
			V486.511z M310.525,409.971c-16.644,21.112-37.827,53.493-41.238,84.938h-34.611v-6.724
			C238.864,445.727,281.103,421.657,310.525,409.971z M461.927,144.854l-109.073,88.337c-5.551,4.48-12.705,6.468-19.772,5.495
			l-55.74-7.714v-10.641l35.84-7.168c3.974-0.811,6.827-4.307,6.827-8.363v-17.067c0-4.713-3.82-8.533-8.533-8.533
			s-8.533,3.82-8.533,8.533v10.069l-35.84,7.168c-3.974,0.811-6.828,4.307-6.827,8.363v15.283l-33.186-4.599
			c-0.312-0.08-0.628-0.142-0.947-0.188c-0.06,0-0.111,0-0.179,0l-33.502-4.634c-0.162,0-0.29-0.094-0.452-0.094h-0.085
			l-93.781-12.928v-18.441c0-2.263-0.9-4.433-2.5-6.033l-17.067-17.067c-3.348-3.234-8.671-3.188-11.962,0.104
			c-3.292,3.292-3.338,8.614-0.104,11.962l14.566,14.566v12.553l-26.735-3.703c-4.218-0.596-7.364-4.189-7.398-8.448V84.83
			c0.032-4.246,3.161-7.832,7.364-8.44l37.931-5.248l5.905,23.774v24.55c0,4.713,3.82,8.533,8.533,8.533
			c4.713,0,8.533-3.82,8.533-8.533V102.4h17.067c4.713,0,8.533-3.821,8.533-8.533c0-4.713-3.82-8.533-8.533-8.533H113.34
			l-4.104-16.546l82.773-11.452c0.06,0,0.111,0,0.162,0l33.86-4.685h0.111c0.213,0,0.393-0.111,0.606-0.12l76.194-10.547v13.184
			L281.14,69.675c-2.38,1.588-3.806,4.264-3.797,7.125v17.067c0,4.713,3.821,8.533,8.533,8.533c4.713,0,8.533-3.821,8.533-8.533
			V81.366l17.681-11.785l12.638,6.323c2.729,1.363,5.977,1.166,8.521-0.515c2.544-1.682,3.998-4.593,3.814-7.637
			c-0.184-3.044-1.978-5.759-4.707-7.122l-12.348-6.17V39.621l13.073-1.809c1.162-0.16,2.334-0.24,3.507-0.239
			c5.919-0.002,11.66,2.025,16.265,5.743l64.435,52.164l-26.453,26.453c-1.631,1.598-2.553,3.784-2.56,6.067v17.067
			c0,4.713,3.82,8.533,8.533,8.533s8.533-3.821,8.533-8.533v-13.534l25.259-25.259l31.326,25.37c1.981,1.621,3.13,4.045,3.13,6.605
			S463.908,143.233,461.927,144.854z"/>
	</g>
</g>
<g>
</g>
<g>
</g>
<g>
</g>
<g>
</g>
<g>
</g>
<g>
</g>
<g>
</g>
<g>
</g>
<g>
</g>
<g>
</g>
<g>
</g>
<g>
</g>
<g>
</g>
<g>
</g>
<g>
</g>
</svg>
