<?xml version="1.0" encoding="iso-8859-1"?>
<!-- Generator: Adobe Illustrator 19.0.0, SVG Export Plug-In . SVG Version: 6.00 Build 0)  -->
<svg version="1.1" id="Capa_1" xmlns="http://www.w3.org/2000/svg" xmlns:xlink="http://www.w3.org/1999/xlink" x="0px" y="0px"
	 viewBox="0 0 511.903 511.903" style="enable-background:new 0 0 511.903 511.903;" xml:space="preserve">
<g>
	<g>
		<g>
			<path d="M503.98,112.976l-35.328-35.328l5.973-5.973c13.281-13.281,13.281-34.813,0-48.094
				c-13.281-13.281-34.813-13.281-48.094,0L246.419,203.694c-9.965-9.935-26.089-9.935-36.053,0l-15.104,15.121
				c-54.107-20.382-115.156-6.515-155.149,35.24S-11.105,357.4,11.589,410.579c22.694,53.179,74.927,87.688,132.746,87.703
				c47.426,0.066,91.854-23.19,118.824-62.201c26.971-39.011,33.037-88.789,16.224-133.135l15.104-15.104
				c9.925-9.968,9.925-26.085,0-36.053l90.044-90.018l36.002,36.002c4.636,4.713,10.959,7.384,17.57,7.424h0.35
				c7.573,0.089,14.783-3.24,19.627-9.062c8.437-10.518,7.495-25.727-2.176-35.123l-11.298-11.281l11.947-12.006l12.006,12.006
				c5.07,5.039,12.015,7.729,19.156,7.419c7.141-0.31,13.828-3.591,18.442-9.049C514.585,137.579,513.643,122.376,503.98,112.976z
				 M208.6,463.869c-55.287,32.289-125.952,18.511-165.06-32.183S9.042,309.144,54.308,263.863h0.017
				c36.672-36.637,91.879-47.417,139.639-27.264c0.119,0.051,0.23,0.12,0.35,0.162c30.222,12.902,54.293,36.977,67.191,67.2
				c0.051,0.12,0.111,0.222,0.162,0.333C286.606,363.263,263.887,431.58,208.6,463.869z M282.421,275.818l-10.445,10.402
				c-13.597-25.509-34.48-46.393-59.989-59.989l10.445-10.402c3.301-3.294,8.646-3.294,11.947,0l48.043,48.043
				C285.696,267.18,285.696,272.509,282.421,275.818z M282.446,239.722l-23.953-23.962L438.598,35.647
				c4.249-4.433,10.563-6.22,16.505-4.673c5.942,1.547,10.582,6.188,12.13,12.13c1.547,5.942-0.24,12.256-4.673,16.505
				l-11.998,12.006l-48.034,48.034L282.446,239.722z M493.109,137.092c-1.533,1.805-3.748,2.892-6.113,3
				c-2.366,0.108-4.67-0.771-6.362-2.429l-12.006-12.006c-6.736-6.439-17.345-6.439-24.081,0l-11.972,12.006
				c-3.196,3.192-4.992,7.523-4.992,12.041s1.796,8.849,4.992,12.041l11.332,11.341c3.385,3.133,3.901,8.299,1.203,12.041
				c-1.602,1.998-4.063,3.111-6.622,2.995c-2.184-0.058-4.269-0.921-5.854-2.423l-36.002-36.002l19.021-19.021l40.96-40.96
				l35.302,35.328C495.294,128.183,495.806,133.349,493.109,137.092z"/>
			<path d="M179.94,267.532c-41.187-17.022-88.663-2.578-113.392,34.497s-19.826,86.456,11.713,117.943
				c17.518,17.525,41.294,27.352,66.074,27.307c44.566-0.035,82.901-31.546,91.56-75.263
				C244.554,328.299,221.127,284.553,179.94,267.532z M173.576,424.439c-28.545,11.824-61.402,5.288-83.25-16.56
				c-14.389-14.292-22.481-33.735-22.481-54.016s8.092-39.724,22.481-54.016c21.847-21.848,54.704-28.383,83.25-16.56
				c28.545,11.824,47.157,39.678,47.157,70.576S202.122,412.616,173.576,424.439z"/>
		</g>
	</g>
</g>
<g>
</g>
<g>
</g>
<g>
</g>
<g>
</g>
<g>
</g>
<g>
</g>
<g>
</g>
<g>
</g>
<g>
</g>
<g>
</g>
<g>
</g>
<g>
</g>
<g>
</g>
<g>
</g>
<g>
</g>
</svg>
