<?xml version="1.0" encoding="iso-8859-1"?>
<!-- Generator: Adobe Illustrator 19.0.0, SVG Export Plug-In . SVG Version: 6.00 Build 0)  -->
<svg version="1.1" id="Capa_1" xmlns="http://www.w3.org/2000/svg" xmlns:xlink="http://www.w3.org/1999/xlink" x="0px" y="0px"
	 viewBox="0 0 512 512" style="enable-background:new 0 0 512 512;" xml:space="preserve">
<g transform="translate(-1)">
	<g>
		<g>
			<path d="M231.4,247.467v35.174c0,14.138,11.461,25.6,25.6,25.6c1.43-0.003,2.857-0.122,4.267-0.358
				c12.519-2.469,21.492-13.523,21.333-26.283v-34.133c0-9.426,7.641-17.067,17.067-17.067
				c32.974-0.038,59.696-26.759,59.733-59.733v-8.533c0-14.138-11.462-25.6-25.6-25.6H180.2c-14.138,0-25.6,11.462-25.6,25.6v8.533
				c0.038,32.974,26.759,59.696,59.733,59.733C223.759,230.4,231.4,238.041,231.4,247.467z M171.667,170.667v-8.533
				c0-4.713,3.82-8.533,8.533-8.533h153.6c4.713,0,8.533,3.82,8.533,8.533v8.533c-0.028,23.552-19.114,42.638-42.667,42.667
				c-18.851,0-34.133,15.282-34.133,34.133V281.6c0.164,4.407-2.762,8.334-7.031,9.438c-2.495,0.459-5.064-0.234-6.989-1.886
				c-1.925-1.616-3.039-3.998-3.046-6.511v-35.174c0-18.851-15.282-34.133-34.133-34.133
				C190.781,213.305,171.695,194.219,171.667,170.667z"/>
			<path d="M393.533,427.52v-86.187c0-39.441-18.918-70.938-48.145-85.333c29.227-14.396,48.145-45.892,48.145-85.333V84.48
				c21.482-4.362,36.163-24.292,33.96-46.101C425.291,16.57,406.92-0.022,385,0H129c-21.92-0.022-40.291,16.57-42.494,38.379
				c-2.203,21.809,12.478,41.739,33.96,46.101v86.187c0,39.441,18.918,70.938,48.145,85.333
				c-29.227,14.396-48.145,45.892-48.145,85.333v86.187c-21.482,4.362-36.163,24.292-33.96,46.101S107.08,512.022,129,512h256
				c21.92,0.022,40.291-16.569,42.494-38.379S415.015,431.882,393.533,427.52z M103.4,42.667c0-14.138,11.461-25.6,25.6-25.6h256
				c14.138,0,25.6,11.462,25.6,25.6s-11.462,25.6-25.6,25.6H129C114.862,68.267,103.4,56.805,103.4,42.667z M137.533,341.333
				c0-45.227,28.075-76.8,68.267-76.8c4.713,0,8.533-3.82,8.533-8.533c0-4.713-3.82-8.533-8.533-8.533
				c-40.192,0-68.267-31.573-68.267-76.8V85.333h238.933v85.333c0,45.227-28.075,76.8-68.267,76.8c-4.713,0-8.533,3.82-8.533,8.533
				c0,4.713,3.82,8.533,8.533,8.533c40.192,0,68.267,31.573,68.267,76.8v85.333h-8.533v-34.133
				c-0.028-23.552-19.114-42.638-42.667-42.667h-35.208c-3.879-15.087-17.48-25.634-33.058-25.634s-29.179,10.547-33.058,25.634
				h-26.675c-23.552,0.028-42.638,19.114-42.667,42.667v34.133h-17.067V341.333z M350.867,392.533v34.133h-179.2v-34.133
				c0-14.138,11.461-25.6,25.6-25.6H231.4c4.713,0,8.533-3.82,8.533-8.533c0-9.426,7.641-17.067,17.067-17.067
				s17.067,7.641,17.067,17.067c0,4.713,3.821,8.533,8.533,8.533h42.667C339.405,366.933,350.867,378.395,350.867,392.533z
				 M385,494.933H129c-14.138,0-25.6-11.461-25.6-25.6s11.461-25.6,25.6-25.6h256c14.138,0,25.6,11.462,25.6,25.6
				S399.139,494.933,385,494.933z"/>
		</g>
	</g>
</g>
<g>
</g>
<g>
</g>
<g>
</g>
<g>
</g>
<g>
</g>
<g>
</g>
<g>
</g>
<g>
</g>
<g>
</g>
<g>
</g>
<g>
</g>
<g>
</g>
<g>
</g>
<g>
</g>
<g>
</g>
</svg>
